<?xml version="1.0" encoding="UTF-8" standalone="no"?>
<!-- Created with Inkscape (http://www.inkscape.org/) -->

<svg
   width="400.90033mm"
   height="326.98434mm"
   viewBox="0 0 400.90033 326.98435"
   version="1.1"
   id="svg5"
   xml:space="preserve"
   inkscape:version="1.4 (e7c3feb100, 2024-10-09)"
   sodipodi:docname="AWS multi-AZ Web Appication (Dark).svg"
   xmlns:inkscape="http://www.inkscape.org/namespaces/inkscape"
   xmlns:sodipodi="http://sodipodi.sourceforge.net/DTD/sodipodi-0.dtd"
   xmlns:xlink="http://www.w3.org/1999/xlink"
   xmlns="http://www.w3.org/2000/svg"
   xmlns:svg="http://www.w3.org/2000/svg"
   xmlns:rdf="http://www.w3.org/1999/02/22-rdf-syntax-ns#"
   xmlns:cc="http://creativecommons.org/ns#"
   xmlns:dc="http://purl.org/dc/elements/1.1/"><title
     id="title1179">AWS Multi AZ Web Application</title><sodipodi:namedview
     id="namedview7"
     pagecolor="#000000"
     bordercolor="#130a37"
     borderopacity="1"
     inkscape:showpageshadow="2"
     inkscape:pageopacity="0.0"
     inkscape:pagecheckerboard="0"
     inkscape:deskcolor="#171021"
     inkscape:document-units="mm"
     showgrid="false"
     inkscape:zoom="0.70710678"
     inkscape:cx="528.20877"
     inkscape:cy="780.64589"
     inkscape:window-width="2560"
     inkscape:window-height="1374"
     inkscape:window-x="0"
     inkscape:window-y="29"
     inkscape:window-maximized="1"
     inkscape:current-layer="layer5"
     inkscape:connector-spacing="65" /><defs
     id="defs2"><marker
       style="overflow:visible"
       id="marker23448"
       refX="0"
       refY="0"
       orient="auto-start-reverse"
       inkscape:stockid="TriangleStart"
       markerWidth="5.3244081"
       markerHeight="6.155385"
       viewBox="0 0 5.3244081 6.1553851"
       inkscape:isstock="true"
       inkscape:collect="always"
       preserveAspectRatio="xMidYMid"><path
         transform="scale(0.5)"
         style="fill:context-stroke;fill-rule:evenodd;stroke:context-stroke;stroke-width:1pt"
         d="M 5.77,0 -2.88,5 V -5 Z"
         id="path23446" /></marker><marker
       style="overflow:visible"
       id="marker22159"
       refX="0"
       refY="0"
       orient="auto-start-reverse"
       inkscape:stockid="TriangleStart"
       markerWidth="5.3244081"
       markerHeight="6.155385"
       viewBox="0 0 5.3244081 6.1553851"
       inkscape:isstock="true"
       inkscape:collect="always"
       preserveAspectRatio="xMidYMid"><path
         transform="scale(0.5)"
         style="fill:context-stroke;fill-rule:evenodd;stroke:context-stroke;stroke-width:1pt"
         d="M 5.77,0 -2.88,5 V -5 Z"
         id="path22157" /></marker><marker
       style="overflow:visible"
       id="marker22059"
       refX="0"
       refY="0"
       orient="auto-start-reverse"
       inkscape:stockid="TriangleStart"
       markerWidth="5.3244081"
       markerHeight="6.155385"
       viewBox="0 0 5.3244081 6.1553851"
       inkscape:isstock="true"
       inkscape:collect="always"
       preserveAspectRatio="xMidYMid"><path
         transform="scale(0.5)"
         style="fill:context-stroke;fill-rule:evenodd;stroke:context-stroke;stroke-width:1pt"
         d="M 5.77,0 -2.88,5 V -5 Z"
         id="path22057" /></marker><marker
       style="overflow:visible"
       id="marker21129"
       refX="0"
       refY="0"
       orient="auto-start-reverse"
       inkscape:stockid="TriangleStart"
       markerWidth="5.3244081"
       markerHeight="6.155385"
       viewBox="0 0 5.3244081 6.1553851"
       inkscape:isstock="true"
       inkscape:collect="always"
       preserveAspectRatio="xMidYMid"><path
         transform="scale(0.5)"
         style="fill:context-stroke;fill-rule:evenodd;stroke:context-stroke;stroke-width:1pt"
         d="M 5.77,0 -2.88,5 V -5 Z"
         id="path21127" /></marker><marker
       style="overflow:visible"
       id="marker21065"
       refX="0"
       refY="0"
       orient="auto-start-reverse"
       inkscape:stockid="TriangleStart"
       markerWidth="5.3244081"
       markerHeight="6.155385"
       viewBox="0 0 5.3244081 6.1553851"
       inkscape:isstock="true"
       inkscape:collect="always"
       preserveAspectRatio="xMidYMid"><path
         transform="scale(0.5)"
         style="fill:context-stroke;fill-rule:evenodd;stroke:context-stroke;stroke-width:1pt"
         d="M 5.77,0 -2.88,5 V -5 Z"
         id="path21063" /></marker><marker
       style="overflow:visible"
       id="marker20140"
       refX="0"
       refY="0"
       orient="auto-start-reverse"
       inkscape:stockid="TriangleStart"
       markerWidth="5.3244081"
       markerHeight="6.155385"
       viewBox="0 0 5.3244081 6.1553851"
       inkscape:isstock="true"
       inkscape:collect="always"
       preserveAspectRatio="xMidYMid"><path
         transform="scale(0.5)"
         style="fill:context-stroke;fill-rule:evenodd;stroke:context-stroke;stroke-width:1pt"
         d="M 5.77,0 -2.88,5 V -5 Z"
         id="path20138" /></marker><marker
       style="overflow:visible"
       id="TriangleStart"
       refX="0"
       refY="0"
       orient="auto-start-reverse"
       inkscape:stockid="TriangleStart"
       markerWidth="5.3244081"
       markerHeight="6.155385"
       viewBox="0 0 5.3244081 6.1553851"
       inkscape:isstock="true"
       inkscape:collect="always"
       preserveAspectRatio="xMidYMid"><path
         transform="scale(0.5)"
         style="fill:context-stroke;fill-rule:evenodd;stroke:context-stroke;stroke-width:1pt"
         d="M 5.77,0 -2.88,5 V -5 Z"
         id="path135" /></marker><symbol
       id="symbol3080"><rect
         style="fill:none;stroke:#00a4a6;stroke-width:0.314301;stroke-dasharray:1.25721, 1.25721;stroke-dashoffset:0;stroke-opacity:1"
         id="rect2463"
         width="59.937534"
         height="107.39452"
         x="187.77127"
         y="66.153992" /><text
         xml:space="preserve"
         style="font-size:3.7819px;line-height:1.25;font-family:sans-serif;letter-spacing:0px;stroke-width:0.0945478"
         x="200.3734"
         y="72.967735"
         id="text2795"><tspan
           sodipodi:role="line"
           id="tspan2793"
           style="stroke-width:0.0945478"
           x="200.3734"
           y="72.967735">Availability Zone 1</tspan></text></symbol><linearGradient
       gradientUnits="userSpaceOnUse"
       id="linearGradient5785"><stop
         id="stop5787"
         offset="0"
         style="stop-color:#c0cdf9;stop-opacity:1" /><stop
         id="stop5789"
         offset="1"
         style="stop-color:#07092d;stop-opacity:0.28804347" /></linearGradient><linearGradient
       gradientUnits="userSpaceOnUse"
       y2="60"
       x2="58"
       y1="35"
       x1="33"
       xlink:href="#WhiteTransparent-4"
       id="shinySpecular-4"
       gradientTransform="matrix(1.009184,0,0,1.009184,-0.3890738,-0.3831933)" /><linearGradient
       gradientUnits="userSpaceOnUse"
       id="WhiteTransparent-4"><stop
         id="stop7606-4"
         offset="0"
         style="stop-color:white;stop-opacity:1" /><stop
         id="stop7608-7"
         offset="1"
         style="stop-color:white;stop-opacity:0" /></linearGradient><linearGradient
       gradientUnits="userSpaceOnUse"
       y2="50"
       x2="90"
       y1="20"
       x1="60"
       xlink:href="#WhiteTransparent-4"
       id="IcecapTip-6" /><symbol
       id="res-amazon-vpc-nat-gateway"><title
         id="title804">res-amazon-vpc-nat-gateway</title><g
         id="Icon-Resource/Networking-and-Content-Delivery/Res_Amazon-VPC_NAT-Gateway_48"
         stroke="none"
         stroke-width="1"
         fill="none"
         fill-rule="evenodd"><path
           d="m 13.6255,35.9209 v -2.838 l 1.774,1.419 z m -0.375,-5.7 c -0.301,-0.241 -0.714,-0.288 -1.059,-0.12 -0.345,0.167 -0.566,0.516 -0.566,0.901 v 7 c 0,0.385 0.221,0.734 0.566,0.901 0.139,0.067 0.287,0.099 0.434,0.099 0.223,0 0.444,-0.074 0.625,-0.219 l 4.375,-3.5 c 0.237,-0.19 0.375,-0.477 0.375,-0.781 0,-0.304 -0.138,-0.591 -0.375,-0.781 z m 24.001,-3.384 v -3.922 l 1.961,1.961 z m 4.082,-2.668 -4.375,-4.375 c -0.286,-0.286 -0.714,-0.372 -1.09,-0.217 -0.374,0.155 -0.617,0.52 -0.617,0.924 v 3.375 h -7.626 v -9.5 c 0,-0.553 -0.447,-1 -1,-1 h -7.694 v 2 h 6.694 v 8.5 h -6.875 v 2 h 6.875 v 8.501 h -6.694 v 2 h 7.694 c 0.553,0 1,-0.447 1,-1 v -9.501 h 7.626 v 3.376 c 0,0.404 0.244,0.77 0.617,0.924 0.124,0.052 0.254,0.076 0.383,0.076 0.26,0 0.516,-0.102 0.707,-0.293 l 4.375,-4.376 c 0.391,-0.391 0.391,-1.023 0,-1.414 z m -27.708,2.127 v -2.839 l 1.774,1.419 z m -0.375,-5.701 c -0.301,-0.241 -0.714,-0.287 -1.059,-0.12 -0.345,0.167 -0.566,0.516 -0.566,0.901 v 7.001 c 0,0.385 0.221,0.734 0.566,0.901 0.139,0.067 0.287,0.099 0.434,0.099 0.223,0 0.444,-0.074 0.625,-0.219 l 4.375,-3.501 c 0.237,-0.19 0.375,-0.477 0.375,-0.781 0,-0.304 -0.138,-0.591 -0.375,-0.781 z m 0.375,-4.8 v -2.838 l 1.774,1.419 z m -0.375,-5.7 c -0.301,-0.241 -0.714,-0.288 -1.059,-0.12 -0.345,0.167 -0.566,0.516 -0.566,0.901 v 7 c 0,0.385 0.221,0.734 0.566,0.901 0.139,0.067 0.287,0.099 0.434,0.099 0.223,0 0.444,-0.074 0.625,-0.219 l 4.375,-3.5 c 0.237,-0.19 0.375,-0.477 0.375,-0.781 0,-0.304 -0.138,-0.591 -0.375,-0.781 z m 10.75,33.908 c -11.028,0 -20.001,-8.973 -20.001,-20.002 0,-11.028 8.973,-20.001 20.001,-20.001 11.029,0 20.002,8.973 20.002,20.001 0,11.029 -8.973,20.002 -20.002,20.002 z m 0,-42.003 c -12.132,0 -22.001,9.869 -22.001,22.001 0,12.132 9.869,22.002 22.001,22.002 12.132,0 22.002,-9.87 22.002,-22.002 0,-12.132 -9.87,-22.001 -22.002,-22.001 z"
           id="AWS-Amazon-VPC_NAT-gateway_Resource-Icon_light-bg"
           fill="#8c4fff" /></g></symbol><symbol
       id="res-amazon-ec2-instance"><title
         id="title19986">res-amazon-ec2-instance</title><g
         id="Icon-Resource/Compute/Res_Amazon-EC2_Instance_48"
         stroke="none"
         stroke-width="1"
         fill="none"
         fill-rule="evenodd"><path
           d="M 9,39 H 39 V 9 H 9 Z M 46,13 V 11 H 41 V 8 C 41,7.448 40.552,7 40,7 H 37 V 2 H 35 V 7 H 31 V 2 H 29 V 7 H 25 V 2 H 23 V 7 H 19 V 2 H 17 V 7 H 13 V 2 H 11 V 7 H 8 C 7.447,7 7,7.448 7,8 v 3 H 2 v 2 h 5 v 4 H 2 v 2 h 5 v 4 H 2 v 2 h 5 v 4 H 2 v 2 h 5 v 4 H 2 v 2 h 5 v 3 c 0,0.553 0.447,1 1,1 h 3 v 5 h 2 v -5 h 4 v 5 h 2 v -5 h 4 v 5 h 2 v -5 h 4 v 5 h 2 v -5 h 4 v 5 h 2 v -5 h 3 c 0.552,0 1,-0.447 1,-1 v -3 h 5 v -2 h -5 v -4 h 5 v -2 h -5 v -4 h 5 v -2 h -5 v -4 h 5 v -2 h -5 v -4 z"
           id="Amazon-EC2-Instance_Resource-Icon_light-bg"
           fill="#ed7100" /></g></symbol><symbol
       id="arch-amazon-ec2-auto-scaling"><title
         id="title202">arch-amazon-ec2-auto-scaling</title><g
         id="Icon-Architecture/48/Arch_Amazon-EC2-Auto-Scaling_48"
         stroke="none"
         stroke-width="1"
         fill="none"
         fill-rule="evenodd"><g
           id="g206"
           fill="#ed7100"><rect
             id="rect204"
             x="0"
             y="0"
             width="64"
             height="64" /></g><path
           d="m 54,31.430806 h -7.399671 l 3.30985,-3.310631 -1.421235,-1.421571 -5.736203,5.737556 5.736203,5.737556 1.421235,-1.421571 -3.30985,-3.310631 H 54 Z m -39.910179,-3.310631 3.30985,3.310631 H 10 v 2.010708 h 7.399671 l -3.30985,3.310631 1.421235,1.421571 5.736203,-5.737556 -5.736203,-5.737556 z M 25.856725,39.473639 H 37.918129 V 27.409389 H 25.856725 Z M 39.928363,26.404035 h 2.010234 v 2.010709 h -2.010234 v 2.010708 h 2.010234 v 2.010708 h -2.010234 v 2.010708 h 2.010234 v 2.010708 h -2.010234 v 2.010709 h 2.010234 v 2.010708 h -2.010234 v -0.6947 c 0,0.937995 -0.762884,1.700054 -1.698648,1.700054 h 0.693531 v 2.010708 h -2.010234 v -2.010708 h -2.010234 v 2.010708 H 32.892544 V 41.484347 H 30.88231 v 2.010708 h -2.010234 v -2.010708 h -2.010234 v 2.010708 h -2.010234 v -2.010708 h 0.693531 c -0.935764,0 -1.698648,-0.762059 -1.698648,-1.700054 v 0.6947 h -2.010234 v -2.010708 h 2.010234 v -2.010709 h -2.010234 v -2.010708 h 2.010234 V 32.43616 h -2.010234 v -2.010708 h 2.010234 v -2.010708 h -2.010234 v -2.010709 h 2.010234 v 0.6947 c 0,-0.937995 0.762884,-1.700054 1.698648,-1.700054 h -0.693531 v -2.010708 h 2.010234 v 2.010708 h 2.010234 v -2.010708 h 2.010234 v 2.010708 h 2.010234 v -2.010708 h 2.010234 v 2.010708 h 2.010234 v -2.010708 h 2.010234 v 2.010708 h -0.693531 c 0.935764,0 1.698648,0.762059 1.698648,1.700054 z m -7.035819,23.74747 V 44.500409 H 30.88231 v 5.651096 L 27.281981,46.550326 25.860746,47.971897 31.887427,54 37.914108,47.971897 36.492873,46.550326 Z M 27.204587,17.387015 25.93814,15.824694 31.887427,11 l 5.949287,4.824694 -1.266447,1.562321 -3.677723,-2.982886 v 6.973136 H 30.88231 v -6.973136 z"
           id="Amazon-EC2-Auto-Scaling_Icon_48_Squid"
           fill="#ffffff" /></g></symbol><symbol
       id="res-users"><title
         id="title2748">res-users</title><g
         id="Icon-Resource/General-Resource/Res_Users_48"
         stroke="none"
         stroke-width="1"
         fill="none"
         fill-rule="evenodd"><path
           d="M 28.639,9.286 C 28.639,6.371 31.052,4 34.019,4 c 2.966,0 5.378,2.371 5.378,5.286 0,2.915 -2.412,5.286 -5.378,5.286 -2.967,0 -5.38,-2.371 -5.38,-5.286 z m 11.524,7.048 c -0.647,-0.402 -1.33,-0.734 -2.035,-1.001 1.97,-1.31 3.269,-3.531 3.269,-6.047 C 41.397,5.269 38.087,2 34.019,2 c -4.069,0 -7.38,3.269 -7.38,7.286 0,2.51 1.293,4.728 3.256,6.039 -1.281,0.483 -2.485,1.19 -3.546,2.1 l 1.303,1.518 c 1.782,-1.529 4.037,-2.371 6.348,-2.371 1.802,0 3.569,0.505 5.109,1.461 2.74,1.702 4.538,4.692 4.844,7.967 H 34 v 2 h 11 c 0.553,0 1,-0.447 1,-1 0,-4.343 -2.236,-8.43 -5.837,-10.666 z M 8.639,9.286 C 8.639,6.371 11.052,4 14.019,4 c 2.966,0 5.378,2.371 5.378,5.286 0,2.915 -2.412,5.286 -5.378,5.286 -2.967,0 -5.38,-2.371 -5.38,-5.286 z M 14,26 H 4.046 C 4.53,20.717 8.81,16.572 14,16.572 c 1.802,0 3.569,0.505 5.109,1.461 0.432,0.269 0.849,0.575 1.24,0.91 l 1.303,-1.517 c -0.468,-0.402 -0.968,-0.769 -1.489,-1.092 -0.647,-0.402 -1.33,-0.734 -2.035,-1.001 1.97,-1.31 3.269,-3.531 3.269,-6.047 C 21.397,5.269 18.087,2 14.019,2 9.95,2 6.639,5.269 6.639,9.286 c 0,2.515 1.298,4.737 3.268,6.046 C 5.302,17.071 2,21.638 2,27 c 0,0.553 0.448,1 1,1 h 11 z m 0.046,18 C 14.53,38.717 18.81,34.572 24,34.572 c 1.802,0 3.569,0.505 5.109,1.461 2.74,1.702 4.538,4.692 4.844,7.967 z m 4.593,-16.714 c 0,-2.915 2.413,-5.286 5.38,-5.286 2.966,0 5.378,2.371 5.378,5.286 0,2.915 -2.412,5.286 -5.378,5.286 -2.967,0 -5.38,-2.371 -5.38,-5.286 z m 11.524,7.048 c -0.647,-0.402 -1.33,-0.734 -2.035,-1.001 1.97,-1.31 3.269,-3.531 3.269,-6.047 0,-4.017 -3.31,-7.286 -7.378,-7.286 -4.069,0 -7.38,3.269 -7.38,7.286 0,2.515 1.298,4.737 3.268,6.046 C 15.302,35.071 12,39.638 12,45 c 0,0.553 0.448,1 1,1 h 22 c 0.553,0 1,-0.447 1,-1 0,-4.343 -2.236,-8.43 -5.837,-10.666 z"
           id="path2750"
           fill="#242f3e" /></g></symbol><symbol
       id="res-documents"><title
         id="title2564">res-documents</title><g
         id="Icon-Resource/General-Resource/Res_Documents_48"
         stroke="none"
         stroke-width="1"
         fill="none"
         fill-rule="evenodd"><path
           d="m 40.708,17.292 -2.874,-2.874 -1.414,1.414 2.581,2.581 V 44 h -24 v -2 h -2 v 3 c 0,0.552 0.447,1 1,1 h 26 c 0.553,0 1,-0.448 1,-1 V 17.999 c 0,-0.265 -0.106,-0.52 -0.293,-0.707 z M 33,38 V 12.999 h -7.999 c -0.553,0 -1,-0.448 -1,-1 V 4 H 9 V 38 Z M 26.001,10.999 h 5.585 L 26.001,5.414 Z M 34,40 H 8 C 7.447,40 7,39.552 7,39 V 3 C 7,2.448 7.447,2 8,2 h 17.001 c 0.266,0 0.519,0.105 0.707,0.293 l 8.999,8.999 C 34.895,11.48 35,11.734 35,11.999 V 39 c 0,0.552 -0.447,1 -1,1 z M 13.001,18 H 23 v -2 h -9.999 z m 0,12 H 23 v -2 h -9.999 z m 0,-6.001 H 27 v -2 H 13.001 Z"
           id="path2566"
           fill="#232f3d" /></g></symbol><symbol
       id="public-subnet.svg"><title
         id="title5717">public-subnet.svg</title><g
         id="Icon-Architecture-Group/32/Public-subnet_32"
         stroke="none"
         stroke-width="1"
         fill="none"
         fill-rule="evenodd"><rect
           x="0"
           y="0"
           width="40"
           height="40"
           id="rect5719"
           fill="#7aa116" /><path
           d="m 19.536,22.049 c 1.106,0 2.006,0.899 2.006,2.005 0,1.106 -0.9,2.006 -2.006,2.006 -1.106,0 -2.006,-0.9 -2.006,-2.006 0,-1.106 0.9,-2.005 2.006,-2.005 z m -0.524,4.958 v 3.494 h 1 v -3.489 c 1.43,-0.23 2.53,-1.463 2.53,-2.958 0,-1.657 -1.349,-3.005 -3.006,-3.005 -1.657,0 -3.006,1.348 -3.006,3.005 0,1.478 1.074,2.703 2.482,2.953 z M 10,33.014 H 29.012 V 18 H 10 Z m 4.046,-20.53 C 14.046,9.46 16.506,7 19.529,7 c 3.024,0 5.483,2.46 5.483,5.484 V 17 H 14.046 Z M 29.512,17 h -3.5 V 12.484 C 26.012,8.908 23.103,6 19.529,6 15.954,6 13.046,8.908 13.046,12.484 V 17 H 9.5 C 9.223,17 9,17.224 9,17.5 v 16.014 c 0,0.276 0.223,0.5 0.5,0.5 h 20.012 c 0.276,0 0.5,-0.224 0.5,-0.5 V 17.5 c 0,-0.276 -0.224,-0.5 -0.5,-0.5 z"
           id="path5721"
           fill="#ffffff" /></g></symbol><symbol
       id="arch-elastic-load-balancing"><title
         id="title13276">arch-elastic-load-balancing</title><g
         id="Icon-Architecture/48/Arch_Elastic-Load-Balancing_48"
         stroke="none"
         stroke-width="1"
         fill="none"
         fill-rule="evenodd"><g
           id="g13280"
           fill="#8c4fff"><rect
             id="rect13278"
             x="0"
             y="0"
             width="64"
             height="64" /></g><path
           d="M 23.5,42 C 17.71,42 13,37.29 13,31.5 13,25.71 17.71,21 23.5,21 29.29,21 34,25.71 34,31.5 34,37.29 29.29,42 23.5,42 M 48,48 c 0,1.654 -1.346,3 -3,3 -1.654,0 -3,-1.346 -3,-3 0,-1.654 1.346,-3 3,-3 1.654,0 3,1.346 3,3 M 45,13 c 1.654,0 3,1.346 3,3 0,1.654 -1.346,3 -3,3 -1.654,0 -3,-1.346 -3,-3 0,-1.654 1.346,-3 3,-3 m 3,16 c 1.654,0 3,1.346 3,3 0,1.654 -1.346,3 -3,3 -1.654,0 -3,-1.346 -3,-3 0,-1.654 1.346,-3 3,-3 m -12.099,4 h 7.201 c 0.463,2.279 2.484,4 4.898,4 2.757,0 5,-2.243 5,-5 0,-2.757 -2.243,-5 -5,-5 -2.414,0 -4.435,1.721 -4.898,4 h -7.127 c -0.059,-1.459 -0.361,-2.854 -0.879,-4.144 l 7.703,-6.389 C 43.466,20.797 44.206,21 45,21 c 2.757,0 5,-2.243 5,-5 0,-2.757 -2.243,-5 -5,-5 -2.757,0 -5,2.243 -5,5 0,1.224 0.459,2.331 1.191,3.201 l -7.019,5.823 C 31.977,21.42 28.021,19 23.5,19 16.607,19 11,24.607 11,31.5 11,38.393 16.607,44 23.5,44 c 4.243,0 7.993,-2.129 10.254,-5.371 l 7.437,6.17 C 40.459,45.669 40,46.776 40,48 c 0,2.757 2.243,5 5,5 2.757,0 5,-2.243 5,-5 0,-2.757 -2.243,-5 -5,-5 -0.794,0 -1.534,0.203 -2.201,0.533 l -8.029,-6.66 c 0.574,-1.2 0.966,-2.5 1.131,-3.873"
           id="Elastic-Load-Balancing_Icon_48_Squid"
           fill="#ffffff" /></g></symbol><symbol
       id="private-subnet.svg"><title
         id="title5709">private-subnet.svg</title><g
         id="Icon-Architecture-Group/32/Private-subnet_32"
         stroke="none"
         stroke-width="1"
         fill="none"
         fill-rule="evenodd"><rect
           x="0"
           y="0"
           width="40"
           height="40"
           id="rect5711"
           fill="#00a4a6" /><path
           d="m 19.536,22.049 c 1.106,0 2.006,0.899 2.006,2.005 0,1.106 -0.9,2.006 -2.006,2.006 -1.106,0 -2.006,-0.9 -2.006,-2.006 0,-1.106 0.9,-2.005 2.006,-2.005 z m -0.524,4.958 v 3.494 h 1 v -3.489 c 1.43,-0.23 2.53,-1.463 2.53,-2.958 0,-1.657 -1.349,-3.005 -3.006,-3.005 -1.657,0 -3.006,1.348 -3.006,3.005 0,1.478 1.074,2.703 2.482,2.953 z M 10,33.014 H 29.012 V 18 H 10 Z m 4.046,-20.53 C 14.046,9.46 16.506,7 19.529,7 c 3.024,0 5.483,2.46 5.483,5.484 V 17 H 14.046 Z M 29.512,17 h -3.5 V 12.484 C 26.012,8.908 23.103,6 19.529,6 15.954,6 13.046,8.908 13.046,12.484 V 17 H 9.5 C 9.223,17 9,17.224 9,17.5 v 16.014 c 0,0.276 0.223,0.5 0.5,0.5 h 20.012 c 0.276,0 0.5,-0.224 0.5,-0.5 V 17.5 c 0,-0.276 -0.224,-0.5 -0.5,-0.5 z"
           id="path5713"
           fill="#ffffff" /></g></symbol><symbol
       id="arch-amazon-rds"><title
         id="title11755">arch-amazon-rds</title><g
         id="Icon-Architecture/48/Arch_Amazon-RDS_48"
         stroke="none"
         stroke-width="1"
         fill="none"
         fill-rule="evenodd"><g
           id="g11759"
           fill="#c925d1"><rect
             id="rect11757"
             x="0"
             y="0"
             width="64"
             height="64" /></g><path
           d="m 54,11 v 8 H 52 V 13.414 L 45.707,19.707 44.293,18.293 50.586,12 H 45.125 V 10 H 53 c 0.553,0 1,0.448 1,1 z M 12,18.875 H 10 V 11 c 0,-0.552 0.447,-1 1,-1 h 8 v 2 h -5.586 l 6.293,6.293 -1.414,1.414 L 12,13.414 Z M 19.707,45.707 13.414,52 h 5.461 v 2 H 11 c -0.553,0 -1,-0.448 -1,-1 v -8 h 2 v 5.586 l 6.293,-6.293 z M 51.5,31.781 c 0,-2.429 -2.866,-4.849 -7.667,-6.474 l 0.641,-1.894 c 5.736,1.941 9.026,4.991 9.026,8.368 0,3.377 -3.29,6.427 -9.026,8.369 L 43.833,38.255 C 48.634,36.631 51.5,34.21 51.5,31.781 Z m -38.957,0 c 0,2.324 2.681,4.679 7.172,6.3 l -0.68,1.88 c -5.396,-1.947 -8.492,-4.928 -8.492,-8.18 0,-3.251 3.096,-6.233 8.492,-8.18 l 0.68,1.881 c -4.491,1.621 -7.172,3.976 -7.172,6.299 z M 52,45.125 h 2 V 53 c 0,0.552 -0.447,1 -1,1 h -8 v -2 h 5.586 L 44.293,45.707 45.707,44.293 52,50.586 Z M 32.022,31.402 c -5.023,0 -7.896,-1.343 -8.022,-1.919 v -3.226 c 2.159,1.009 5.609,1.336 8,1.336 2.391,0 5.841,-0.327 8,-1.336 v 3.226 c -0.106,0.574 -2.949,1.919 -7.978,1.919 z m 0,5.728 c -5.023,0 -7.896,-1.344 -8.022,-1.92 v -3.254 c 1.953,0.981 5.055,1.446 8.022,1.446 2.951,0 6.033,-0.464 7.978,-1.442 v 3.25 c -0.106,0.575 -2.948,1.92 -7.978,1.92 z M 32,42.268 c -5.05,0 -7.896,-1.351 -8,-1.922 v -2.663 c 1.953,0.982 5.055,1.447 8.022,1.447 2.951,0 6.033,-0.464 7.978,-1.443 v 2.655 c -0.104,0.575 -2.95,1.926 -8,1.926 z m 0,-20.075 c 4.971,0 7.642,1.177 7.982,1.701 -0.34,0.523 -3.011,1.699 -7.982,1.699 -5.091,0 -7.767,-1.232 -8,-1.644 V 23.93 c 0.233,-0.504 2.909,-1.737 8,-1.737 z m 0,-2 c -3.714,0 -10,0.78 -10,3.701 v 16.452 c 0,2.695 5.184,3.922 10,3.922 4.816,0 10,-1.227 10,-3.922 V 23.894 c 0,-2.921 -6.286,-3.701 -10,-3.701 z"
           id="Amazon-RDS_Icon_48_Squid"
           fill="#ffffff" /></g></symbol><symbol
       id="res-amazon-vpc-internet-gateway"><title
         id="title9821">res-amazon-vpc-internet-gateway</title><g
         id="Icon-Resource/Networking-and-Content-Delivery/Res_Amazon-VPC_Internet-Gateway_48"
         stroke="none"
         stroke-width="1"
         fill="none"
         fill-rule="evenodd"><path
           d="m 33.4312,35.1778 h -1.498 v -17.676 c 0,-0.393 -0.231,-0.75 -0.589,-0.911 l -0.092,-0.042 c -2.009,-0.907 -4.088,-1.846 -7.076,-1.846 -3.123,0 -5.415,1.009 -7.681,2.134 -0.34,0.169 -0.555,0.516 -0.555,0.896 v 17.445 h -1.463 v -18.866 c 2.434,-1.979 5.943,-3.107 9.709,-3.107 3.501,0 6.839,0.997 9.245,2.748 z m -9.245,-23.973 c -4.425,0 -8.569,1.419 -11.371,3.895 -0.215,0.189 -0.338,0.462 -0.338,0.749 v 20.329 c 0,0.553 0.447,1 1,1 h 3.463 c 0.553,0 1,-0.447 1,-1 v -17.822 c 1.919,-0.927 3.779,-1.653 6.236,-1.653 2.335,0 4.033,0.675 5.757,1.446 v 18.029 c 0,0.553 0.447,1 1,1 h 3.498 c 0.553,0 1,-0.447 1,-1 v -20.72 c 0,-0.304 -0.139,-0.592 -0.378,-0.783 -2.774,-2.205 -6.735,-3.47 -10.867,-3.47 z m -0.232,32.704 c -11.002,0 -19.955,-8.952 -19.955,-19.955 0,-11.003 8.953,-19.954 19.955,-19.954 11.003,0 19.955,8.951 19.955,19.954 0,11.003 -8.952,19.955 -19.955,19.955 z m 0,-41.909 c -12.106,0 -21.955,9.849 -21.955,21.954 0,12.107 9.849,21.955 21.955,21.955 12.106,0 21.955,-9.848 21.955,-21.955 0,-12.105 -9.849,-21.954 -21.955,-21.954 z"
           id="AWS-Amazon-VPC_Internet-gateway_Resource-Icon_light-bg"
           fill="#8c4fff" /></g></symbol><symbol
       id="arch-amazon-s3-on-outposts"><title
         id="title13673">arch-amazon-s3-on-outposts</title><g
         id="Icon-Architecture/48/Arch_Amazon-S3-on-Outposts_48"
         stroke="none"
         stroke-width="1"
         fill="none"
         fill-rule="evenodd"><g
           id="g13677"
           fill="#7aa116"><rect
             id="rect13675"
             x="0"
             y="0"
             width="64"
             height="64" /></g><g
           id="Icon-Service/48/Amazon-S3-On-Outposts_48"
           transform="translate(10,10)"
           fill="#ffffff"><path
             d="m 40.416,20.305 c -0.21,-0.861 -4.563,-2.818 -10.955,-2.818 -6.392,0 -10.744,1.957 -10.954,2.818 l 0.008,0.058 c 0.343,0.865 4.639,2.391 10.946,2.391 6.243,0 10.51,-1.495 10.93,-2.364 l 0.006,-0.052 0.014,0.002 z m -0.379,2.71 c -2.877,1.328 -7.684,1.739 -10.576,1.739 -2.899,0 -7.716,-0.413 -10.59,-1.746 l 1.03,7.648 c 0.771,0.283 1.494,0.74 2.129,1.368 0.366,0.362 0.687,0.775 0.959,1.236 0.612,-0.272 1.303,-0.325 1.97,-0.129 1.105,0.328 1.881,1.24 2.155,2.5 0.448,0.147 0.892,0.355 1.286,0.605 1.368,0.865 2.061,1.998 2.061,3.368 0,0.925 -0.211,1.719 -0.608,2.387 1.842,-0.026 3.663,-0.22 5.162,-0.566 0.616,-0.142 1.159,-0.305 1.616,-0.486 0.705,-0.279 1,-0.526 1.078,-0.626 10e-4,-0.019 0.004,-0.038 0.006,-0.057 l 1.07,-7.951 C 35.887,31.384 32.217,29.726 30.24,28.797 30.021,28.923 29.77,29 29.5,29 28.673,29 28,28.327 28,27.5 28,26.673 28.673,26 29.5,26 c 0.604,0 1.124,0.362 1.361,0.879 1.569,0.74 5.28,2.445 8.196,3.411 z M 28.461,39.604 c 0,-0.476 -0.135,-1.048 -1.131,-1.679 -0.392,-0.248 -0.873,-0.438 -1.288,-0.508 -0.506,-0.086 -0.858,-0.537 -0.832,-1.038 -0.067,-0.703 -0.37,-1.198 -0.819,-1.33 -0.362,-0.106 -0.736,0.031 -0.98,0.358 -0.222,0.294 -0.59,0.439 -0.949,0.388 -0.363,-0.054 -0.668,-0.304 -0.792,-0.651 -0.245,-0.683 -0.597,-1.255 -1.045,-1.697 -0.403,-0.398 -1.324,-1.133 -2.629,-1.133 -0.459,0 -0.965,0.091 -1.513,0.319 -1.178,0.491 -2.137,1.965 -2.137,3.286 0,0.152 0.008,0.301 0.027,0.447 0.063,0.501 -0.259,0.971 -0.749,1.094 -0.804,0.202 -1.762,0.751 -1.762,2.221 0,1.197 0.661,1.853 1.216,2.194 0.134,0.082 0.29,0.125 0.453,0.125 l 12.591,0.013 h 0.005 c 0.391,-0.002 2.334,-0.134 2.334,-2.409 z M 12.348,35.786 c 0.058,-2.084 1.486,-4.215 3.366,-4.999 0.704,-0.293 1.42,-0.432 2.126,-0.453 l -1.297,-9.625 h 0.001 c -0.001,-0.001 -0.001,-0.002 -0.001,-0.004 l -0.032,-0.246 c -0.006,-0.043 -0.009,-0.086 -0.009,-0.13 0,-1.375 1.431,-2.504 3.572,-3.329 H 20 V 3 C 20,2.449 19.552,2 19,2 H 3 C 2.448,2 2,2.449 2,3 v 35 c 0,0.552 0.448,1 1,1 h 6.909 c 0.202,-1.477 1.071,-2.62 2.439,-3.214 z M 13.529,44 C 12.996,43.999 12.479,43.854 12.032,43.579 11.401,43.192 10.444,42.389 10.049,41 H 6 v 3 H 4 V 41 H 3 C 1.346,41 0,39.655 0,38 V 3 C 0,1.346 1.346,0 3,0 h 16 c 1.654,0 3,1.346 3,3 v 13.389 c 2.234,-0.582 4.887,-0.902 7.461,-0.902 6.232,0 12.96,1.852 12.96,4.842 0,0.044 -0.003,0.087 -0.009,0.13 l -0.032,0.246 c -0.005,0.042 -0.013,0.083 -0.024,0.124 -0.002,0.009 -0.007,0.016 -0.009,0.024 l -1.035,7.676 c 1.696,0.989 2.507,1.785 2.662,2.608 0.084,0.449 -0.033,0.888 -0.326,1.237 -0.34,0.406 -0.852,0.607 -1.6,0.607 -0.374,0 -0.815,-0.056 -1.315,-0.156 l -1.029,7.644 c -0.041,0.949 -0.827,1.733 -2.338,2.33 -0.55,0.218 -1.19,0.411 -1.902,0.574 C 33.716,43.778 31.584,44 29.461,44 h -3.33 z M 6,17 H 17 V 15 H 6 Z m 0,5 h 8 V 20 H 6 Z M 6,12 H 17 V 10 H 6 Z"
             id="Fill-4" /></g></g></symbol><symbol
       id="arch-amazon-cloudfront"><title
         id="title13142">arch-amazon-cloudfront</title><g
         id="Icon-Architecture/48/Arch_Amazon-CloudFront_48"
         stroke="none"
         stroke-width="1"
         fill="none"
         fill-rule="evenodd"><g
           id="Icon-Architecture-BG/48/Networking-Content-Delivery"
           fill="#8c4fff"><rect
             id="Rectangle"
             x="0"
             y="0"
             width="64"
             height="64" /></g><path
           d="m 41.5,43.5 c -1.103,0 -2,-0.897 -2,-2 0,-1.103 0.897,-2 2,-2 1.103,0 2,0.897 2,2 0,1.103 -0.897,2 -2,2 z m 0,-6 c -2.206,0 -4,1.794 -4,4 0,2.206 1.794,4 4,4 2.206,0 4,-1.794 4,-4 0,-2.206 -1.794,-4 -4,-4 z m -19,-5 c -1.103,0 -2,-0.897 -2,-2 0,-1.103 0.897,-2 2,-2 1.103,0 2,0.897 2,2 0,1.103 -0.897,2 -2,2 z m 0,-6 c -2.206,0 -4,1.794 -4,4 0,2.206 1.794,4 4,4 2.206,0 4,-1.794 4,-4 0,-2.206 -1.794,-4 -4,-4 z m 22.889,20.624 c -0.221,-0.517 -0.453,-1.03 -0.704,-1.533 l -1.789,0.895 c 0.274,0.549 0.524,1.113 0.76,1.679 -0.836,0.597 -1.713,1.123 -2.628,1.575 0.356,-0.875 0.666,-1.765 0.946,-2.728 l -1.92,-0.558 c -0.49,1.68 -1.069,3.127 -1.87,4.679 C 36.357,51.698 34.452,52 32.5,52 c -3.035,0 -5.933,-0.686 -8.629,-2.024 -1.368,-3.361 -2.033,-6.442 -2.033,-9.417 0,-1.292 0.225,-2.363 0.484,-3.603 0.064,-0.304 0.128,-0.613 0.192,-0.932 l -1.963,-0.386 c -0.061,0.311 -0.124,0.612 -0.186,0.907 -0.271,1.293 -0.527,2.515 -0.527,4.014 0,2.515 0.436,5.085 1.316,7.795 C 16.072,44.724 13,38.854 13,32.5 c 0,-0.111 0.01,-0.227 0.012,-0.339 1.63,-0.362 3.111,-0.547 4.842,-0.59 l -0.05,-1.999 c -1.635,0.04 -3.11,0.207 -4.641,0.512 0.918,-7.401 6.049,-13.69 13.16,-16.065 1.55,0.799 2.697,1.505 3.812,2.351 l 1.209,-1.594 C 30.646,14.248 29.934,13.771 29.146,13.299 30.244,13.108 31.363,13 32.5,13 c 2.532,0 5.032,0.494 7.349,1.439 -0.507,0.154 -1.029,0.324 -1.606,0.532 l 0.68,1.881 C 40.316,16.349 41.408,16.04 42.571,15.821 48.399,19.341 52,25.667 52,32.5 52,38.156 49.605,43.416 45.389,47.124 Z M 43.008,13.749 C 39.826,11.95 36.192,11 32.5,11 30.392,11 28.324,11.301 26.357,11.895 17.723,14.464 11.568,22.23 11.045,31.196 11.01,31.625 11,32.062 11,32.5 11,40.444 15.352,47.707 22.354,51.455 25.459,53.12 28.968,54 32.5,54 c 2.392,0 4.729,-0.39 6.937,-1.157 2.247,-0.757 4.336,-1.88 6.209,-3.336 C 50.955,45.399 54,39.2 54,32.5 54,24.732 49.787,17.546 43.008,13.749 Z m -4.624,23.662 -1.381,1.447 c -2.981,-2.843 -5.956,-4.712 -9.366,-5.883 l 0.65,-1.892 c 3.692,1.268 6.901,3.279 10.097,6.328 z m 0.06,-15.047 c 2.838,4.328 4.436,9.08 4.749,14.124 l -1.996,0.124 C 40.905,31.919 39.417,27.495 36.772,23.46 Z m -11.993,4.433 -1.678,-1.089 c 1.543,-2.376 2.866,-3.95 4.563,-5.43 l 1.314,1.508 c -1.547,1.349 -2.764,2.801 -4.199,5.011 z M 34.5,16.5 c 1.103,0 2,0.897 2,2 0,1.103 -0.897,2 -2,2 -1.103,0 -2,-0.897 -2,-2 0,-1.103 0.897,-2 2,-2 z m 0,6 c 2.206,0 4,-1.794 4,-4 0,-2.206 -1.794,-4 -4,-4 -2.206,0 -4,1.794 -4,4 0,2.206 1.794,4 4,4 z"
           id="Amazon-CloudFront_Icon_48_Squid"
           fill="#ffffff" /></g></symbol><symbol
       id="arch-amazon-route-53"><title
         id="title13149">arch-amazon-route-53</title><g
         id="Icon-Architecture/48/Arch_Amazon-Route-53_48"
         stroke="none"
         stroke-width="1"
         fill="none"
         fill-rule="evenodd"><g
           id="g13153"
           fill="#8c4fff"><rect
             id="rect13151"
             x="0"
             y="0"
             width="64"
             height="64" /></g><path
           d="m 38.761,32.526507 c 0.575,0.53126 0.862,1.243608 0.862,2.137044 0,0.973476 -0.349,1.749856 -1.049,2.330139 -0.699,0.581284 -1.639,0.871426 -2.82,0.871426 -0.932,0 -1.855,-0.199097 -2.768,-0.595291 v -1.191582 c 1.081,0.357174 2.004,0.535261 2.768,0.535261 0.754,0 1.334,-0.168082 1.741,-0.505247 0.408,-0.337164 0.611,-0.8194 0.611,-1.444706 0,-1.200586 -0.759,-1.80188 -2.278,-1.80188 -0.476,0 -0.947,0.02501 -1.414,0.07404 v -0.98248 l 3.126,-3.409666 h -4.406 v -1.221597 h 6.059 v 1.176575 l -3.067,3.246586 c 0.05,-0.01 0.099,-0.01501 0.149,-0.01501 h 0.149 c 0.983,0 1.761,0.26613 2.337,0.796389 M 30.114,32.26638 c 0.604,0.566277 0.907,1.344657 0.907,2.337142 0,0.973476 -0.353,1.75986 -1.057,2.361154 -0.705,0.600293 -1.633,0.90044 -2.783,0.90044 -1.012,0 -1.96,-0.199097 -2.843,-0.595291 v -1.191582 c 1.102,0.357174 2.044,0.535261 2.828,0.535261 0.754,0 1.332,-0.170083 1.734,-0.51225 0.402,-0.343168 0.602,-0.836409 0.602,-1.482725 0,-0.704344 -0.187,-1.215594 -0.565,-1.533749 -0.377,-0.317155 -0.992,-0.476233 -1.846,-0.476233 -0.615,0 -1.384,0.05002 -2.307,0.149073 v -0.98248 l 0.284,-4.453176 H 30.5 v 1.221597 h -4.182 l -0.195,3.023477 c 0.546,-0.100048 1.037,-0.150073 1.474,-0.150073 1.072,0 1.911,0.283138 2.517,0.849415 m 11.147,10.697227 c -3.745,0.672329 -7.028,2.182066 -9.261,3.431677 -2.232,-1.249611 -5.515,-2.759348 -9.26,-3.431677 -1.032,-0.18509 -6.174,-1.255613 -6.174,-4.139022 0,-1.361666 0.497,-2.282115 1.451,-3.924918 1.116,-1.925941 2.646,-4.56323 2.646,-8.22602 0,-2.563252 -0.659,-5.022454 -1.96,-7.320577 0.089,-0.109053 0.179,-0.220107 0.269,-0.330161 1.955,0.949464 3.987,1.429698 6.053,1.429698 2.546,0 4.889,-0.65632 6.975,-1.950953 2.086,1.294633 4.43,1.950953 6.976,1.950953 2.065,0 4.097,-0.480234 6.053,-1.429698 0.089,0.110054 0.179,0.221108 0.268,0.330161 -1.301,2.298123 -1.96,4.757325 -1.96,7.320577 0,3.66279 1.53,6.300079 2.647,8.22602 0.954,1.642803 1.451,2.563252 1.451,3.924918 0,2.883409 -5.143,3.953932 -6.174,4.139022 m 4.076,-16.28996 c 0,-2.414179 0.682,-4.729311 2.025,-6.881362 0.227,-0.363178 0.197,-0.831406 -0.074,-1.162568 -0.395,-0.484237 -0.809,-0.993486 -1.218,-1.499733 -0.304,-0.377184 -0.836,-0.480235 -1.261,-0.24612 -1.883,1.040508 -3.846,1.567766 -5.833,1.567766 -2.4,0 -4.494,-0.643315 -6.406,-1.968962 -0.342,-0.238117 -0.797,-0.238117 -1.139,0 -1.912,1.325647 -4.007,1.968962 -6.406,1.968962 -1.988,0 -3.951,-0.527258 -5.833,-1.567766 -0.426,-0.234115 -0.956,-0.131064 -1.261,0.24612 -0.409,0.506247 -0.823,1.015496 -1.219,1.499733 -0.27,0.331162 -0.301,0.79939 -0.073,1.162568 1.343,2.152051 2.024,4.467183 2.024,6.881362 0,3.124527 -1.262,5.30059 -2.377,7.221529 -1.066,1.838899 -1.72,3.060495 -1.72,4.929409 0,4.363132 5.985,5.778823 7.82,6.107984 3.75,0.67433 7.024,2.265107 9.111,3.479701 0.156,0.09004 0.329,0.136066 0.503,0.136066 0.174,0 0.348,-0.04602 0.503,-0.136066 2.087,-1.214594 5.362,-2.805371 9.112,-3.479701 1.834,-0.329161 7.82,-1.744852 7.82,-6.107984 0,-1.868914 -0.654,-3.09051 -1.721,-4.929409 C 46.6,31.974237 45.337,29.798174 45.337,26.673647 M 42.068,47.458804 C 37.402,48.297213 33.468,50.755415 32,51.767909 30.532,50.755415 26.599,48.297213 21.933,47.458804 19.603,47.039599 12,45.17869 12,38.824585 c 0,-2.654297 1.004,-4.386143 2.068,-6.219039 0.998,-1.719841 2.03,-3.49871 2.03,-5.931899 0,-3.666791 -2.027,-6.302079 -3.157,-7.486658 1.154,-1.404686 3.695,-4.506202 5.088,-6.290073 2.122,1.934945 4.571,2.98846 6.996,2.98846 2.701,0 4.942,-1.065521 6.975,-3.336631 2.033,2.27111 4.275,3.336631 6.976,3.336631 2.425,0 4.874,-1.053515 6.996,-2.98846 1.393,1.783871 3.934,4.885387 5.088,6.290073 -1.13,1.184579 -3.157,3.819867 -3.157,7.486658 0,2.433189 1.032,4.212058 2.03,5.931899 1.063,1.832896 2.067,3.564742 2.067,6.219039 0,6.354105 -7.602,8.215014 -9.932,8.634219 m 9.594,-15.857749 c -0.944,-1.626795 -1.759,-3.033482 -1.759,-4.927408 0,-4.001955 3.121,-6.602226 3.15,-6.626238 0.207,-0.168082 0.339,-0.4112 0.366,-0.67733 0.027,-0.26613 -0.054,-0.53126 -0.223,-0.737361 -0.052,-0.06203 -5.147,-6.239048 -6.311,-7.834828 -0.176,-0.241118 -0.449,-0.391191 -0.747,-0.4092 -0.293,-0.01901 -0.588,0.09805 -0.791,0.315154 -1.917,2.051002 -4.18,3.180554 -6.371,3.180554 -2.416,0 -4.322,-1.083529 -6.182,-3.513717 -0.379,-0.4942414 -1.209,-0.4942414 -1.588,0 -1.859,2.430188 -3.765,3.513717 -6.181,3.513717 -2.192,0 -4.454,-1.129552 -6.371,-3.180554 -0.204,-0.218107 -0.5,-0.339166 -0.791,-0.315154 -0.298,0.01801 -0.572,0.168082 -0.748,0.4092 -1.164,1.59578 -6.258,7.772798 -6.31,7.834828 -0.17,0.206101 -0.25,0.471231 -0.224,0.737361 0.028,0.26613 0.159,0.509248 0.367,0.67733 0.032,0.02601 3.15,2.594268 3.15,6.626238 0,1.893926 -0.816,3.300613 -1.76,4.927408 -1.096,1.888923 -2.338,4.029969 -2.338,7.22353 0,5.336607 4.328,9.300544 11.579,10.604181 5.316,0.954467 9.768,4.331117 9.813,4.365133 C 31.572,53.931967 31.785,54 32,54 c 0.215,0 0.43,-0.06903 0.61,-0.207101 0.044,-0.03402 4.478,-3.405664 9.811,-4.364133 C 49.672,48.125129 54,44.161192 54,38.824585 c 0,-3.193561 -1.242,-5.334607 -2.338,-7.22353"
           id="Amazon-Route-53-Icon_48_Squid"
           fill="#ffffff" /></g></symbol></defs><g
     inkscape:groupmode="layer"
     id="layer2"
     inkscape:label="root"
     style="display:inline"><rect
       style="fill:#475d7a;fill-opacity:1;stroke:none;stroke-width:0.499999;stroke-dasharray:2.00001, 2.00001;stroke-dashoffset:0;stroke-opacity:1"
       id="rect15116"
       width="11"
       height="11"
       x="-2.3885295"
       y="11.755235"
       transform="translate(19.244497)" /><rect
       style="fill:none;stroke:#ffffff;stroke-width:0.500001;stroke-dasharray:none;stroke-dashoffset:0;stroke-opacity:1"
       id="rect6187"
       width="358.88538"
       height="297.76019"
       x="-2.0752628"
       y="11.799749"
       transform="translate(19.244497)" /><g
       id="inkscape-logo"
       transform="matrix(0.02375357,0,0,0.02375357,18.053665,12.835498)"
       style="stroke-width:10.4709"><path
         d="M 163.15,5.5526469 28.81,143.02265 c -45.39,56.21 30.89,49.67 63.59,65.86 11.73,11.99 -44.96,20.84 -33.23,32.84 11.73,11.99 70.93,23.1 82.68,35.09 11.73,11.99 -24.01,24.71 -12.28,36.7 11.73,11.99 38.86,0.63 43.94,28.31 3.62,19.78 48.89,8.5 71.03,-7.7 11.73,-12 -22.44,-10.87 -10.71,-22.86 29.17,-29.83 56.33,-10.84 66.31,-40.73 4.93,-14.77 -42.94,-22.77 -31.19,-34.76 33.75,-19.71 150.4,-32.54 95.05,-87.89 L 224.75,5.5526469 c -17.03,-16.3499999 -45.45,-16.5299999 -61.6,0 z M 317.46,270.53265 c 0,6.82 50.25,11.29 50.25,-1.61 -7.16,-20.72 -44.31,-19.32 -50.25,1.61 z m -226.36,36.24 c 11.9,10.29 30.28,-2.56 35.79,-16.92 -11.53,-15.32 -54.69,0.55 -35.79,16.92 z m 220.06,-22.23 c -15.34,13.76 1.72,27.72 16.84,18.83 3.37,-3.42 -0.09,-15.41 -16.84,-18.83 z"
         id="path2313"
         inkscape:connector-curvature="0"
         style="fill:#000000;fill-opacity:1;stroke-width:10.4709" /><path
         d="m 131,238.6 c 3.59,2.23 57.89,13.26 71.16,15.46 4.6,0.97 1.34,5.71 -5,8.91 -14.3,3.8 -83.66,-24.37 -66.16,-24.37 z"
         id="path2315"
         style="fill:#ffffff;stroke-width:10.4709"
         inkscape:connector-curvature="0" /><path
         d="m 216.63,37.47 53.15,53.98 c 5.04,5.15 4.97,15.13 2.15,18 L 245.54,88.34 240.35,119.6 218.3,107.96 182.99,130.27 171.3,83.24 152.33,116.06 h -29 c -11.82,0 -13.21,-15 -2.47,-25.74 18.76,-20.25 40.29,-40.89 51.99,-52.85 11.76,-12.02 32.25,-11.68 43.78,0 z"
         id="path2317"
         style="fill:#ffffff;stroke-width:10.4709"
         inkscape:connector-curvature="0" /></g><text
       xml:space="preserve"
       style="font-style:normal;font-variant:normal;font-weight:normal;font-stretch:normal;font-size:4.58611px;line-height:1.25;font-family:sans-serif;-inkscape-font-specification:'sans-serif, Normal';font-variant-ligatures:normal;font-variant-caps:normal;font-variant-numeric:normal;font-variant-east-asian:normal;letter-spacing:0px;stroke-width:0.264583;fill:#ffffff;fill-opacity:1"
       x="12.24759"
       y="19.472813"
       id="text16017"
       transform="translate(19.244497)"><tspan
         sodipodi:role="line"
         id="tspan16015"
         style="font-style:normal;font-variant:normal;font-weight:normal;font-stretch:normal;font-size:4.58611px;font-family:sans-serif;-inkscape-font-specification:'sans-serif, Normal';font-variant-ligatures:normal;font-variant-caps:normal;font-variant-numeric:normal;font-variant-east-asian:normal;stroke-width:0.264583;fill:#ffffff;fill-opacity:1"
         x="12.24759"
         y="19.472813">Inkscape AWS Template</tspan></text></g><g
     inkscape:groupmode="layer"
     id="layer3"
     inkscape:label="Availability Zones"
     style="display:inline"><rect
       style="fill:none;stroke:#00a4a6;stroke-width:0.5;stroke-dasharray:2, 2;stroke-dashoffset:0;stroke-opacity:1"
       id="rect6189"
       width="64.571564"
       height="231.65161"
       x="62.569355"
       y="71.296028"
       transform="translate(19.244497)" /><rect
       style="fill:none;stroke:#00a4a6;stroke-width:0.5;stroke-dasharray:2, 2;stroke-dashoffset:0;stroke-opacity:1"
       id="rect16019"
       width="64.571564"
       height="232.0498"
       x="188.82915"
       y="71.296021"
       transform="translate(19.244497)" /><text
       xml:space="preserve"
       style="font-style:normal;font-variant:normal;font-weight:normal;font-stretch:normal;font-size:4.58611px;line-height:1.25;font-family:sans-serif;-inkscape-font-specification:'sans-serif, Normal';font-variant-ligatures:normal;font-variant-caps:normal;font-variant-numeric:normal;font-variant-east-asian:normal;letter-spacing:0px;stroke-width:0.264583;fill:#ffffff;fill-opacity:1"
       x="73.324615"
       y="78.023346"
       id="text16991"
       transform="translate(19.244497)"><tspan
         sodipodi:role="line"
         id="tspan16989"
         style="font-style:normal;font-variant:normal;font-weight:normal;font-stretch:normal;font-size:4.58611px;font-family:sans-serif;-inkscape-font-specification:'sans-serif, Normal';font-variant-ligatures:normal;font-variant-caps:normal;font-variant-numeric:normal;font-variant-east-asian:normal;stroke-width:0.264583;fill:#ffffff;fill-opacity:1"
         x="73.324615"
         y="78.023346">Availability Zone 1</tspan></text><text
       xml:space="preserve"
       style="font-style:normal;font-variant:normal;font-weight:normal;font-stretch:normal;font-size:4.58611px;line-height:1.25;font-family:sans-serif;-inkscape-font-specification:'sans-serif, Normal';font-variant-ligatures:normal;font-variant-caps:normal;font-variant-numeric:normal;font-variant-east-asian:normal;letter-spacing:0px;stroke-width:0.264583;fill:#ffffff;fill-opacity:1"
       x="200.99353"
       y="78.023346"
       id="text17045"
       transform="translate(19.244497)"><tspan
         sodipodi:role="line"
         id="tspan17043"
         style="font-style:normal;font-variant:normal;font-weight:normal;font-stretch:normal;font-size:4.58611px;font-family:sans-serif;-inkscape-font-specification:'sans-serif, Normal';font-variant-ligatures:normal;font-variant-caps:normal;font-variant-numeric:normal;font-variant-east-asian:normal;stroke-width:0.264583;fill:#ffffff;fill-opacity:1"
         x="200.99353"
         y="78.023346">Availability Zone 2</tspan></text></g><g
     inkscape:groupmode="layer"
     id="layer4"
     inkscape:label="VPC"
     style="display:inline"><rect
       style="fill:none;stroke:#8c4fff;stroke-width:0.5;stroke-dasharray:none;stroke-dashoffset:0;stroke-opacity:1"
       id="rect16021"
       width="245.57416"
       height="208.09064"
       x="33.133369"
       y="84.112396"
       transform="translate(19.244497)" /><text
       xml:space="preserve"
       style="font-style:normal;font-variant:normal;font-weight:normal;font-stretch:normal;font-size:4.58611px;line-height:1.25;font-family:sans-serif;-inkscape-font-specification:'sans-serif, Normal';font-variant-ligatures:normal;font-variant-caps:normal;font-variant-numeric:normal;font-variant-east-asian:normal;letter-spacing:0px;stroke-width:0.264583;fill:#ffffff;fill-opacity:1"
       x="46.866257"
       y="91.781693"
       id="text17775"
       transform="translate(19.244497)"><tspan
         sodipodi:role="line"
         id="tspan17773"
         style="font-style:normal;font-variant:normal;font-weight:normal;font-stretch:normal;font-size:4.58611px;font-family:sans-serif;-inkscape-font-specification:'sans-serif, Normal';font-variant-ligatures:normal;font-variant-caps:normal;font-variant-numeric:normal;font-variant-east-asian:normal;stroke-width:0.264583;fill:#ffffff;fill-opacity:1"
         x="46.866257"
         y="91.781693">VPC</tspan></text><use
       xlink:href="#private-subnet.svg"
       id="use16230"
       transform="matrix(0.26458333,0,0,0.26458333,63.445575,150.16276)" /><text
       xml:space="preserve"
       style="font-style:normal;font-variant:normal;font-weight:normal;font-stretch:normal;font-size:4.58611px;line-height:1.25;font-family:sans-serif;-inkscape-font-specification:'sans-serif, Normal';font-variant-ligatures:normal;font-variant-caps:normal;font-variant-numeric:normal;font-variant-east-asian:normal;letter-spacing:0px;stroke-width:0.264583;fill:#ffffff;fill-opacity:1"
       x="57.978767"
       y="157.39827"
       id="text5922"
       transform="translate(19.244497)"><tspan
         sodipodi:role="line"
         id="tspan5920"
         style="font-style:normal;font-variant:normal;font-weight:normal;font-stretch:normal;font-size:4.58611px;font-family:sans-serif;-inkscape-font-specification:'sans-serif, Normal';font-variant-ligatures:normal;font-variant-caps:normal;font-variant-numeric:normal;font-variant-east-asian:normal;stroke-width:0.264583;fill:#ffffff;fill-opacity:1"
         x="57.978767"
         y="157.39827">Private subnet</tspan></text><use
       xlink:href="#public-subnet.svg"
       id="use6028"
       transform="matrix(0.26458333,0,0,0.26458333,63.415849,99.718842)" /><text
       xml:space="preserve"
       style="font-style:normal;font-variant:normal;font-weight:normal;font-stretch:normal;font-size:4.58611px;line-height:1.25;font-family:sans-serif;-inkscape-font-specification:'sans-serif, Normal';font-variant-ligatures:normal;font-variant-caps:normal;font-variant-numeric:normal;font-variant-east-asian:normal;letter-spacing:0px;stroke-width:0.264583;fill:#ffffff;fill-opacity:1"
       x="57.978767"
       y="107.12762"
       id="text20982"
       transform="translate(19.244497)"><tspan
         sodipodi:role="line"
         id="tspan20980"
         style="font-style:normal;font-variant:normal;font-weight:normal;font-stretch:normal;font-size:4.58611px;font-family:sans-serif;-inkscape-font-specification:'sans-serif, Normal';font-variant-ligatures:normal;font-variant-caps:normal;font-variant-numeric:normal;font-variant-east-asian:normal;stroke-width:0.264583;fill:#ffffff;fill-opacity:1"
         x="57.978767"
         y="107.12762">Public subnet</tspan></text><rect
       style="fill:none;stroke:#00a4a6;stroke-width:0.5;stroke-dasharray:none;stroke-dashoffset:0;stroke-opacity:1"
       id="rect3042"
       width="216.24391"
       height="73.065834"
       x="44.245876"
       y="150.25818"
       transform="translate(19.244497)" /><rect
       style="fill:none;stroke:#3f8624;stroke-width:0.5;stroke-dasharray:none;stroke-dashoffset:0;stroke-opacity:1"
       id="rect6026"
       width="216.24391"
       height="36.789112"
       x="44.245876"
       y="99.862778"
       transform="translate(19.244497)" /><g
       id="g27706"><g
         id="use1424"
         transform="matrix(0.171875,0,0,0.171875,51.989821,83.871813)"
         style="stroke-width:1.53939"><title
           id="title17859">arch-amazon-virtual-private-cloud</title><g
           id="g17867"
           stroke="none"
           stroke-width="1"
           fill="none"
           fill-rule="evenodd"><g
             id="g17863"
             fill="#8c4fff"><rect
               id="rect17861"
               x="0"
               y="0"
               width="64"
               height="64" /></g></g></g><path
         d="m 48,33.977287 -3.501,-1.469 v 14.37 c 3.407,-0.731 3.499,-4.697 3.501,-4.883 z m -5.501,12.946 v -14.415 l -3.499,1.469 v 8.027 c 0.008,0.462 0.183,4.335 3.499,4.919 z m 0.613,-16.841 c 0.246,-0.105 0.526,-0.104 0.774,-0.001 l 5.501,2.309 c 0.372,0.156 0.613,0.519 0.613,0.922 v 8.692 c -0.022,2.427 -1.438,7 -6.63,7 -4.977,0 -6.344,-4.572 -6.37,-6.989 v -8.703 c 0,-0.403 0.241,-0.766 0.613,-0.922 z m 8.888,0.71 -8.508,-3.7 -8.492109,3.576 v 10.357 c -8.91e-4,0.065 -0.03689,4.984 2.807109,7.869 1.38,1.4 3.252,2.11 5.563,2.11 8.438,0 8.626,-9.579 8.63,-9.986 z m 2,-0.656 v 10.889 c -0.027,4.148 -2.284,11.979 -10.63,11.979 -2.872,0 -5.225,-0.914 -6.997,-2.716 -3.432,-3.491 -3.377,-9.045 -3.373,-9.28 v -11.004 c 0,-0.402 0.241,-0.766 0.612,-0.922 l 9.499,-4 c 0.252,-0.106 0.536,-0.104 0.786,0.005 l 9.501,4.132 c 0.366,0.159 0.602,0.519 0.602,0.917 z m -35,7.868 h 11 v 2 H 19 c -4.784,0 -8.729,-3.521 -8.98,-8.016 -0.018,-0.175 -0.02,-0.389 -0.02,-0.603 0,-5.299 3.654,-7.347 5.919,-8.107 -0.017,-0.215 -0.028,-0.435 -0.028,-0.652 0,-4.587 2.767,-8.925 6.73,-10.547 4.959,-2.03 10.614,-1.142 14.074,2.206 1.023,0.997 1.909,2.311 2.648,3.921 0.956,-0.784 2.049,-1.202 3.18,-1.202 2.711,0 5.758,2.292 6.377,6.058 2.169,0.282 4.036,1.577 4.996,3.52 l -1.792,0.887 c -0.764,-1.544 -2.298,-2.465 -4.104,-2.465 -0.529,0 -0.967,-0.413 -0.998,-0.941 -0.195,-3.301 -2.727,-5.059 -4.479,-5.059 -0.973,0 -1.941,0.57 -2.726,1.604 -0.222,0.291 -0.582,0.44 -0.945,0.385 -0.362,-0.055 -0.665,-0.302 -0.79,-0.645 -0.735,-2.002 -1.664,-3.559 -2.76,-4.628 -2.896,-2.803 -7.687,-3.524 -11.923,-1.79 -3.604,1.475 -5.488,5.491 -5.488,8.696 0,0.4 0.056,0.877 0.102,1.26 0.06,0.5 -0.263,0.967 -0.753,1.089 -1.957,0.484 -5.24,1.962 -5.24,6.41 0,0.15 -0.002,0.3 0.013,0.451 0.196,3.476 3.263,6.168 6.987,6.168 z"
         id="path17865"
         fill="#ffffff"
         style="stroke-width:1.53939"
         transform="matrix(0.171875,0,0,0.171875,51.938367,83.920629)" /></g></g><g
     inkscape:groupmode="layer"
     id="layer5"
     inkscape:label="top"
     style="display:inline"><circle
       style="fill:#ffffff;fill-opacity:1;stroke:none;stroke-width:0.499999;stroke-dasharray:2, 2;stroke-dashoffset:0;stroke-opacity:1"
       id="path20120"
       cx="159.07524"
       cy="83.721756"
       r="7.2857957"
       transform="translate(19.244497)" /><use
       xlink:href="#res-amazon-vpc-nat-gateway"
       id="use27123"
       transform="matrix(0.26458333,0,0,0.26458333,109.37271,111.58248)" /><text
       xml:space="preserve"
       style="font-style:normal;font-variant:normal;font-weight:normal;font-stretch:normal;font-size:4.58611px;line-height:1.25;font-family:sans-serif;-inkscape-font-specification:'sans-serif, Normal';font-variant-ligatures:normal;font-variant-caps:normal;font-variant-numeric:normal;font-variant-east-asian:normal;letter-spacing:0px;stroke-width:0.264583;fill:#ffffff;fill-opacity:1"
       x="81.018661"
       y="129.004"
       id="text27156"
       transform="translate(19.244497)"><tspan
         sodipodi:role="line"
         id="tspan27154"
         style="font-style:normal;font-variant:normal;font-weight:normal;font-stretch:normal;font-size:4.58611px;font-family:sans-serif;-inkscape-font-specification:'sans-serif, Normal';font-variant-ligatures:normal;font-variant-caps:normal;font-variant-numeric:normal;font-variant-east-asian:normal;stroke-width:0.264583;fill:#ffffff;fill-opacity:1"
         x="81.018661"
         y="129.004">NAT gateway</tspan></text><use
       xlink:href="#res-amazon-vpc-nat-gateway"
       id="use27158"
       transform="matrix(0.26458333,0,0,0.26458333,234.68366,111.58248)" /><text
       xml:space="preserve"
       style="font-style:normal;font-variant:normal;font-weight:normal;font-stretch:normal;font-size:4.58611px;line-height:1.25;font-family:sans-serif;-inkscape-font-specification:'sans-serif, Normal';font-variant-ligatures:normal;font-variant-caps:normal;font-variant-numeric:normal;font-variant-east-asian:normal;letter-spacing:0px;stroke-width:0.264583;fill:#ffffff;fill-opacity:1"
       x="206.32913"
       y="129.004"
       id="text27162"
       transform="translate(19.244497)"><tspan
         sodipodi:role="line"
         id="tspan27160"
         style="font-style:normal;font-variant:normal;font-weight:normal;font-stretch:normal;font-size:4.58611px;font-family:sans-serif;-inkscape-font-specification:'sans-serif, Normal';font-variant-ligatures:normal;font-variant-caps:normal;font-variant-numeric:normal;font-variant-east-asian:normal;stroke-width:0.264583;fill:#ffffff;fill-opacity:1"
         x="206.32913"
         y="129.004">NAT gateway</tspan></text><rect
       style="fill:none;stroke:#ed7100;stroke-width:0.499999;stroke-dasharray:1.99999, 1.99999;stroke-dashoffset:0;stroke-opacity:1"
       id="rect27164"
       width="165.74973"
       height="28.865946"
       x="73.35537"
       y="175.33691"
       transform="translate(19.244497)" /><use
       xlink:href="#res-amazon-ec2-instance"
       id="use27343"
       transform="matrix(0.26458333,0,0,0.26458333,234.91765,180.38163)" /><text
       xml:space="preserve"
       style="font-style:normal;font-variant:normal;font-weight:normal;font-stretch:normal;font-size:4.58611px;line-height:1.25;font-family:sans-serif;-inkscape-font-specification:'sans-serif, Normal';font-variant-ligatures:normal;font-variant-caps:normal;font-variant-numeric:normal;font-variant-east-asian:normal;letter-spacing:0px;stroke-width:0.264583;fill:#ffffff;fill-opacity:1"
       x="211.62073"
       y="197.79527"
       id="text27376"
       transform="translate(19.244497)"><tspan
         sodipodi:role="line"
         id="tspan27374"
         style="font-style:normal;font-variant:normal;font-weight:normal;font-stretch:normal;font-size:4.58611px;font-family:sans-serif;-inkscape-font-specification:'sans-serif, Normal';font-variant-ligatures:normal;font-variant-caps:normal;font-variant-numeric:normal;font-variant-east-asian:normal;stroke-width:0.264583;fill:#ffffff;fill-opacity:1"
         x="211.62073"
         y="197.79527">Instance</tspan></text><use
       xlink:href="#res-amazon-ec2-instance"
       id="use27378"
       transform="matrix(0.26458333,0,0,0.26458333,109.16104,180.38163)" /><text
       xml:space="preserve"
       style="font-style:normal;font-variant:normal;font-weight:normal;font-stretch:normal;font-size:4.58611px;line-height:1.25;font-family:sans-serif;-inkscape-font-specification:'sans-serif, Normal';font-variant-ligatures:normal;font-variant-caps:normal;font-variant-numeric:normal;font-variant-east-asian:normal;letter-spacing:0px;stroke-width:0.264583;fill:#ffffff;fill-opacity:1"
       x="85.335442"
       y="197.79527"
       id="text27382"
       transform="translate(19.244497)"><tspan
         sodipodi:role="line"
         id="tspan27380"
         style="font-style:normal;font-variant:normal;font-weight:normal;font-stretch:normal;font-size:4.58611px;font-family:sans-serif;-inkscape-font-specification:'sans-serif, Normal';font-variant-ligatures:normal;font-variant-caps:normal;font-variant-numeric:normal;font-variant-east-asian:normal;stroke-width:0.264583;fill:#ffffff;fill-opacity:1"
         x="85.335442"
         y="197.79527">Instance</tspan></text><use
       xlink:href="#arch-amazon-ec2-auto-scaling"
       id="use27419"
       transform="matrix(0.171875,0,0,0.171875,172.76766,193.18506)"
       style="stroke-width:1.53939" /><text
       xml:space="preserve"
       style="font-style:normal;font-variant:normal;font-weight:normal;font-stretch:normal;font-size:4.58611px;line-height:1.25;font-family:sans-serif;-inkscape-font-specification:'sans-serif, Normal';font-variant-ligatures:normal;font-variant-caps:normal;font-variant-numeric:normal;font-variant-east-asian:normal;letter-spacing:0px;stroke-width:0.264583;fill:#ffffff;fill-opacity:1"
       x="137.06313"
       y="208.89383"
       id="text27460"
       transform="translate(19.244497)"><tspan
         sodipodi:role="line"
         id="tspan27458"
         style="font-style:normal;font-variant:normal;font-weight:normal;font-stretch:normal;font-size:4.58611px;font-family:sans-serif;-inkscape-font-specification:'sans-serif, Normal';font-variant-ligatures:normal;font-variant-caps:normal;font-variant-numeric:normal;font-variant-east-asian:normal;stroke-width:0.264583;fill:#ffffff;fill-opacity:1"
         x="137.06313"
         y="208.89383">Auto Scaling Group</tspan></text><use
       xlink:href="#arch-amazon-s3-on-outposts"
       id="use23248"
       transform="matrix(0.26458333,0,0,0.26458333,330.8821,157.50966)" /><use
       xlink:href="#arch-amazon-cloudfront"
       id="use23369"
       transform="matrix(0.26458333,0,0,0.26458333,330.77102,77.692075)" /><g
       id="use2958"
       style="fill:#ffffff;fill-opacity:1"
       transform="matrix(0.26458333,0,0,0.26458333,171.90709,38.454118)"><title
         id="title2">res-users</title><g
         id="g2"
         stroke="none"
         stroke-width="1"
         fill="none"
         fill-rule="evenodd"
         style="fill:#ffffff;fill-opacity:1"><path
           d="M 28.639,9.286 C 28.639,6.371 31.052,4 34.019,4 c 2.966,0 5.378,2.371 5.378,5.286 0,2.915 -2.412,5.286 -5.378,5.286 -2.967,0 -5.38,-2.371 -5.38,-5.286 z m 11.524,7.048 c -0.647,-0.402 -1.33,-0.734 -2.035,-1.001 1.97,-1.31 3.269,-3.531 3.269,-6.047 C 41.397,5.269 38.087,2 34.019,2 c -4.069,0 -7.38,3.269 -7.38,7.286 0,2.51 1.293,4.728 3.256,6.039 -1.281,0.483 -2.485,1.19 -3.546,2.1 l 1.303,1.518 c 1.782,-1.529 4.037,-2.371 6.348,-2.371 1.802,0 3.569,0.505 5.109,1.461 2.74,1.702 4.538,4.692 4.844,7.967 H 34 v 2 h 11 c 0.553,0 1,-0.447 1,-1 0,-4.343 -2.236,-8.43 -5.837,-10.666 z M 8.639,9.286 C 8.639,6.371 11.052,4 14.019,4 c 2.966,0 5.378,2.371 5.378,5.286 0,2.915 -2.412,5.286 -5.378,5.286 -2.967,0 -5.38,-2.371 -5.38,-5.286 z M 14,26 H 4.046 C 4.53,20.717 8.81,16.572 14,16.572 c 1.802,0 3.569,0.505 5.109,1.461 0.432,0.269 0.849,0.575 1.24,0.91 l 1.303,-1.517 c -0.468,-0.402 -0.968,-0.769 -1.489,-1.092 -0.647,-0.402 -1.33,-0.734 -2.035,-1.001 1.97,-1.31 3.269,-3.531 3.269,-6.047 C 21.397,5.269 18.087,2 14.019,2 9.95,2 6.639,5.269 6.639,9.286 c 0,2.515 1.298,4.737 3.268,6.046 C 5.302,17.071 2,21.638 2,27 c 0,0.553 0.448,1 1,1 h 11 z m 0.046,18 C 14.53,38.717 18.81,34.572 24,34.572 c 1.802,0 3.569,0.505 5.109,1.461 2.74,1.702 4.538,4.692 4.844,7.967 z m 4.593,-16.714 c 0,-2.915 2.413,-5.286 5.38,-5.286 2.966,0 5.378,2.371 5.378,5.286 0,2.915 -2.412,5.286 -5.378,5.286 -2.967,0 -5.38,-2.371 -5.38,-5.286 z m 11.524,7.048 c -0.647,-0.402 -1.33,-0.734 -2.035,-1.001 1.97,-1.31 3.269,-3.531 3.269,-6.047 0,-4.017 -3.31,-7.286 -7.378,-7.286 -4.069,0 -7.38,3.269 -7.38,7.286 0,2.515 1.298,4.737 3.268,6.046 C 15.302,35.071 12,39.638 12,45 c 0,0.553 0.448,1 1,1 h 22 c 0.553,0 1,-0.447 1,-1 0,-4.343 -2.236,-8.43 -5.837,-10.666 z"
           id="path2"
           fill="#242f3e"
           style="fill:#ffffff;fill-opacity:1" /></g></g><g
       id="use2999"
       style="fill:#ffffff;fill-opacity:1;stroke:#ffffff;stroke-opacity:1"
       transform="matrix(0.26458333,0,0,0.26458333,340.24057,123.79627)"><title
         id="title1">res-documents</title><g
         id="g1"
         stroke="none"
         stroke-width="1"
         fill="none"
         fill-rule="evenodd"
         style="fill:#ffffff;fill-opacity:1"><path
           d="m 40.708,17.292 -2.874,-2.874 -1.414,1.414 2.581,2.581 V 44 h -24 v -2 h -2 v 3 c 0,0.552 0.447,1 1,1 h 26 c 0.553,0 1,-0.448 1,-1 V 17.999 c 0,-0.265 -0.106,-0.52 -0.293,-0.707 z M 33,38 V 12.999 h -7.999 c -0.553,0 -1,-0.448 -1,-1 V 4 H 9 V 38 Z M 26.001,10.999 h 5.585 L 26.001,5.414 Z M 34,40 H 8 C 7.447,40 7,39.552 7,39 V 3 C 7,2.448 7.447,2 8,2 h 17.001 c 0.266,0 0.519,0.105 0.707,0.293 l 8.999,8.999 C 34.895,11.48 35,11.734 35,11.999 V 39 c 0,0.552 -0.447,1 -1,1 z M 13.001,18 H 23 v -2 h -9.999 z m 0,12 H 23 v -2 h -9.999 z m 0,-6.001 H 27 v -2 H 13.001 Z"
           id="path1"
           fill="#232f3d"
           style="fill:#ffffff;fill-opacity:1" /></g></g><use
       xlink:href="#arch-elastic-load-balancing"
       id="use16065"
       transform="matrix(0.26458333,0,0,0.26458333,169.42072,108.16473)" /><use
       xlink:href="#arch-amazon-rds"
       id="use17887"
       transform="matrix(0.26458333,0,0,0.26458333,105.59018,252.99338)" /><text
       xml:space="preserve"
       style="font-style:normal;font-variant:normal;font-weight:normal;font-stretch:normal;font-size:4.58611px;line-height:1.25;font-family:sans-serif;-inkscape-font-specification:'sans-serif, Normal';font-variant-ligatures:normal;font-variant-caps:normal;font-variant-numeric:normal;font-variant-east-asian:normal;letter-spacing:0px;stroke-width:0.264583;fill:#ffffff;fill-opacity:1"
       x="66.160362"
       y="277.10727"
       id="text17930"
       transform="translate(19.244497)"><tspan
         sodipodi:role="line"
         id="tspan17928"
         style="font-style:normal;font-variant:normal;font-weight:normal;font-stretch:normal;font-size:4.58611px;font-family:sans-serif;-inkscape-font-specification:'sans-serif, Normal';font-variant-ligatures:normal;font-variant-caps:normal;font-variant-numeric:normal;font-variant-east-asian:normal;stroke-width:0.264583;fill:#ffffff;fill-opacity:1"
         x="66.160362"
         y="277.10727">RDS Primary (read/write)</tspan></text><use
       xlink:href="#arch-amazon-rds"
       id="use17932"
       transform="matrix(0.26458333,0,0,0.26458333,232.92749,252.99338)" /><text
       xml:space="preserve"
       style="font-style:normal;font-variant:normal;font-weight:normal;font-stretch:normal;font-size:4.58611px;line-height:1.25;font-family:sans-serif;-inkscape-font-specification:'sans-serif, Normal';font-variant-ligatures:normal;font-variant-caps:normal;font-variant-numeric:normal;font-variant-east-asian:normal;letter-spacing:0px;stroke-width:0.264583;fill:#ffffff;fill-opacity:1"
       x="193.49767"
       y="277.10727"
       id="text17936"
       transform="translate(19.244497)"><tspan
         sodipodi:role="line"
         id="tspan17934"
         style="font-style:normal;font-variant:normal;font-weight:normal;font-stretch:normal;font-size:4.58611px;font-family:sans-serif;-inkscape-font-specification:'sans-serif, Normal';font-variant-ligatures:normal;font-variant-caps:normal;font-variant-numeric:normal;font-variant-east-asian:normal;stroke-width:0.264583;fill:#ffffff;fill-opacity:1"
         x="193.49767"
         y="277.10727">RDS Primary (read/write)</tspan></text><path
       style="fill:none;stroke:#000000;stroke-width:0.5;stroke-linecap:butt;stroke-linejoin:miter;stroke-dasharray:2, 2;stroke-dashoffset:0;stroke-opacity:1;marker-end:url(#TriangleStart)"
       d="M 103.60451,261.95367 H 212.24399"
       id="path18382"
       transform="translate(19.244497)" /><text
       xml:space="preserve"
       style="font-style:italic;font-variant:normal;font-weight:normal;font-stretch:normal;font-size:4.58611px;line-height:1.25;font-family:sans-serif;-inkscape-font-specification:'sans-serif Italic';font-variant-ligatures:normal;font-variant-caps:normal;font-variant-numeric:normal;font-variant-east-asian:normal;letter-spacing:0px;stroke-width:0.264583;fill:#ffffff;fill-opacity:1"
       x="132.81364"
       y="267.13718"
       id="text18422"
       transform="translate(19.244497)"><tspan
         sodipodi:role="line"
         id="tspan18420"
         style="font-style:italic;font-variant:normal;font-weight:normal;font-stretch:normal;font-size:4.58611px;font-family:sans-serif;-inkscape-font-specification:'sans-serif Italic';font-variant-ligatures:normal;font-variant-caps:normal;font-variant-numeric:normal;font-variant-east-asian:normal;stroke-width:0.264583;fill:#ffffff;fill-opacity:1"
         x="132.81364"
         y="267.13718">Cross AZ Replication</tspan></text><use
       xlink:href="#res-amazon-vpc-internet-gateway"
       id="use20031"
       transform="matrix(0.26458333,0,0,0.26458333,171.96517,77.767093)" /><text
       xml:space="preserve"
       style="font-style:normal;font-variant:normal;font-weight:normal;font-stretch:normal;font-size:4.58611px;line-height:1.25;font-family:sans-serif;-inkscape-font-specification:'sans-serif, Normal';font-variant-ligatures:normal;font-variant-caps:normal;font-variant-numeric:normal;font-variant-east-asian:normal;letter-spacing:0px;stroke-width:0.264583;fill:#ffffff;fill-opacity:1"
       x="138.69034"
       y="94.479057"
       id="text20124"
       transform="translate(19.244497)"><tspan
         sodipodi:role="line"
         id="tspan20122"
         style="font-style:normal;font-variant:normal;font-weight:normal;font-stretch:normal;font-size:4.58611px;font-family:sans-serif;-inkscape-font-specification:'sans-serif, Normal';font-variant-ligatures:normal;font-variant-caps:normal;font-variant-numeric:normal;font-variant-east-asian:normal;stroke-width:0.264583;fill:#ffffff;fill-opacity:1"
         x="138.69034"
         y="94.479057">Internet Gateway</tspan></text><path
       style="fill:none;stroke:#ffffff;stroke-width:0.5;stroke-linecap:butt;stroke-linejoin:miter;stroke-dasharray:2, 2;stroke-dashoffset:0;stroke-opacity:1;marker-end:url(#TriangleStart)"
       d="M 103.60451,261.95367 H 212.24399"
       id="path20128"
       transform="translate(19.244497)" /><path
       style="fill:none;stroke:#ffffff;stroke-width:0.5;stroke-linecap:butt;stroke-linejoin:miter;stroke-dasharray:none;stroke-opacity:1;marker-end:url(#marker20140)"
       d="M 159.05034,55.012785 V 76.149826"
       id="path20136"
       transform="translate(19.244497)" /><text
       xml:space="preserve"
       style="font-style:normal;font-variant:normal;font-weight:normal;font-stretch:normal;font-size:4.58611px;line-height:1.25;font-family:sans-serif;-inkscape-font-specification:'sans-serif, Normal';font-variant-ligatures:normal;font-variant-caps:normal;font-variant-numeric:normal;font-variant-east-asian:normal;letter-spacing:0px;stroke-width:0.264583;fill:#ffffff;fill-opacity:1"
       x="142.39449"
       y="130.99156"
       id="text20188"
       transform="translate(19.244497)"><tspan
         sodipodi:role="line"
         id="tspan20186"
         style="font-style:normal;font-variant:normal;font-weight:normal;font-stretch:normal;font-size:4.58611px;font-family:sans-serif;-inkscape-font-specification:'sans-serif, Normal';font-variant-ligatures:normal;font-variant-caps:normal;font-variant-numeric:normal;font-variant-east-asian:normal;stroke-width:0.264583;fill:#ffffff;fill-opacity:1"
         x="142.39449"
         y="130.99156">Load Balancer</tspan></text><path
       style="fill:none;stroke:#000000;stroke-width:0.5;stroke-linecap:butt;stroke-linejoin:miter;stroke-dasharray:none;stroke-opacity:1;marker-end:url(#marker20140)"
       d="m 159.05034,96.287811 v 9.682719"
       id="path20198"
       transform="translate(19.244497)" /><path
       style="fill:none;stroke:#000000;stroke-width:0.5;stroke-linecap:butt;stroke-linejoin:miter;stroke-dasharray:none;stroke-opacity:1;marker-end:url(#marker20140)"
       d="m 159.05034,96.287811 v 9.682719"
       id="path20210"
       transform="translate(19.244497)" /><path
       style="fill:none;stroke:#ffffff;stroke-width:0.5;stroke-linecap:butt;stroke-linejoin:miter;stroke-dasharray:none;stroke-opacity:1"
       d="m 159.55894,133.77615 v 53.20691"
       id="path20996"
       sodipodi:nodetypes="cc"
       transform="translate(19.244497)" /><path
       style="fill:none;stroke:#ffffff;stroke-width:0.5;stroke-linecap:butt;stroke-linejoin:miter;stroke-dasharray:none;stroke-opacity:1"
       d="m 159.05034,214.80908 v 29.39129"
       id="path21051"
       sodipodi:nodetypes="cc"
       transform="translate(19.244497)" /><path
       style="fill:none;stroke:#ffffff;stroke-width:0.5;stroke-linecap:butt;stroke-linejoin:miter;stroke-dasharray:none;stroke-opacity:1;marker-start:url(#marker21065);marker-end:url(#marker21129)"
       d="m 95.073758,251.57594 v -7.60018 H 223.65194 v 6.50035"
       id="path21061"
       transform="translate(19.244497)" /><path
       style="fill:none;stroke:#ffffff;stroke-width:0.5;stroke-linecap:butt;stroke-linejoin:miter;stroke-dasharray:none;stroke-opacity:1;marker-start:url(#marker21065);marker-end:url(#marker21129)"
       d="m 222.54625,198.73643 v 16.06684 H 96.084728 v -15.49618"
       id="path21231"
       sodipodi:nodetypes="cccc"
       transform="translate(19.244497)" /><path
       style="fill:none;stroke:#ffffff;stroke-width:0.5;stroke-linecap:butt;stroke-linejoin:miter;stroke-dasharray:none;stroke-opacity:1;marker-start:url(#marker22059);marker-end:url(#marker22159)"
       d="M 102.07154,187.02744 H 215.67856"
       id="path22055"
       transform="translate(19.244497)" /><path
       style="fill:none;stroke:#ffffff;stroke-width:0.5;stroke-linecap:butt;stroke-linejoin:miter;stroke-dasharray:none;stroke-opacity:1;marker-end:url(#marker20140)"
       d="m 159.05034,96.287811 v 9.682719"
       id="path22289"
       transform="translate(19.244497)" /><path
       style="fill:none;stroke:#ffffff;stroke-width:0.5;stroke-linecap:butt;stroke-linejoin:miter;stroke-dasharray:none;stroke-opacity:1;marker-end:url(#marker20140)"
       d="M 222.54881,181.4745 V 132.10428"
       id="path22295"
       sodipodi:nodetypes="cc"
       transform="translate(19.244497)" /><path
       style="fill:none;stroke:#ffffff;stroke-width:0.5;stroke-linecap:butt;stroke-linejoin:miter;stroke-dasharray:none;stroke-opacity:1;marker-end:url(#marker20140)"
       d="M 96.960686,181.4745 V 132.10428"
       id="path22303"
       sodipodi:nodetypes="cc"
       transform="translate(19.244497)" /><path
       style="fill:none;stroke:#ffffff;stroke-width:0.5;stroke-linecap:butt;stroke-linejoin:miter;stroke-dasharray:none;stroke-opacity:1;marker-end:url(#marker23448)"
       d="m 167.93078,44.383047 h 152.8458 v 31.522357"
       id="path23444"
       transform="translate(19.244497)" /><text
       xml:space="preserve"
       style="font-style:normal;font-variant:normal;font-weight:normal;font-stretch:normal;font-size:4.58611px;line-height:1.25;font-family:sans-serif;-inkscape-font-specification:'sans-serif, Normal';font-variant-ligatures:normal;font-variant-caps:normal;font-variant-numeric:normal;font-variant-east-asian:normal;letter-spacing:0px;stroke-width:0.264583;fill:#ffffff;fill-opacity:1"
       x="299.83182"
       y="100.31907"
       id="text23584"
       transform="translate(19.244497)"><tspan
         sodipodi:role="line"
         id="tspan23582"
         style="font-style:normal;font-variant:normal;font-weight:normal;font-stretch:normal;font-size:4.58611px;font-family:sans-serif;-inkscape-font-specification:'sans-serif, Normal';font-variant-ligatures:normal;font-variant-caps:normal;font-variant-numeric:normal;font-variant-east-asian:normal;stroke-width:0.264583;fill:#ffffff;fill-opacity:1"
         x="299.83182"
         y="100.31907">CloudFront (CDN)</tspan></text><path
       style="fill:none;stroke:#ffffff;stroke-width:0.5;stroke-linecap:butt;stroke-linejoin:miter;stroke-dasharray:none;stroke-opacity:1;marker-end:url(#marker20140)"
       d="m 320.77536,105.93162 v 48.49265"
       id="path23588"
       sodipodi:nodetypes="cc"
       transform="translate(19.244497)" /><text
       xml:space="preserve"
       style="font-style:normal;font-variant:normal;font-weight:normal;font-stretch:normal;font-size:4.58611px;line-height:1.25;font-family:sans-serif;-inkscape-font-specification:'sans-serif, Normal';font-variant-ligatures:normal;font-variant-caps:normal;font-variant-numeric:normal;font-variant-east-asian:normal;letter-spacing:0px;stroke-width:0.264583;fill:#ffffff;fill-opacity:1"
       x="316.81128"
       y="180.22815"
       id="text23594"
       transform="translate(19.244497)"><tspan
         sodipodi:role="line"
         id="tspan23592"
         style="font-style:normal;font-variant:normal;font-weight:normal;font-stretch:normal;font-size:4.58611px;font-family:sans-serif;-inkscape-font-specification:'sans-serif, Normal';font-variant-ligatures:normal;font-variant-caps:normal;font-variant-numeric:normal;font-variant-east-asian:normal;stroke-width:0.264583;fill:#ffffff;fill-opacity:1"
         x="316.81128"
         y="180.22815">S3</tspan></text><text
       xml:space="preserve"
       style="font-style:italic;font-variant:normal;font-weight:normal;font-stretch:normal;font-size:4.58611px;line-height:1.25;font-family:sans-serif;-inkscape-font-specification:'sans-serif Italic';font-variant-ligatures:normal;font-variant-caps:normal;font-variant-numeric:normal;font-variant-east-asian:normal;letter-spacing:0px;stroke-width:0.264583;fill:#ffffff;fill-opacity:1"
       x="-152.99092"
       y="336.75101"
       id="text23600"
       transform="rotate(-90,9.6222484,-9.6222485)"><tspan
         sodipodi:role="line"
         style="font-style:italic;font-variant:normal;font-weight:normal;font-stretch:normal;font-size:4.58611px;font-family:sans-serif;-inkscape-font-specification:'sans-serif Italic';font-variant-ligatures:normal;font-variant-caps:normal;font-variant-numeric:normal;font-variant-east-asian:normal;stroke-width:0.264583;fill:#ffffff;fill-opacity:1"
         x="-152.99092"
         y="336.75101"
         id="tspan23602">Static Resources</tspan></text><use
       xlink:href="#arch-amazon-route-53"
       id="use23680"
       transform="matrix(0.26458333,0,0,0.26458333,97.304453,36.338552)" /><path
       style="fill:none;stroke:#ffffff;stroke-width:0.5;stroke-linecap:butt;stroke-linejoin:miter;stroke-dasharray:none;stroke-opacity:1;marker-start:url(#marker22059)"
       d="m 100.53097,44.431441 h 49.74026"
       id="path23761"
       sodipodi:nodetypes="cc"
       transform="translate(19.244497)" /><text
       xml:space="preserve"
       style="font-style:normal;font-variant:normal;font-weight:normal;font-stretch:normal;font-size:4.58611px;line-height:1.25;font-family:sans-serif;-inkscape-font-specification:'sans-serif, Normal';font-variant-ligatures:normal;font-variant-caps:normal;font-variant-numeric:normal;font-variant-east-asian:normal;letter-spacing:0px;stroke-width:0.264583;fill:#ffffff;fill-opacity:1"
       x="75.441284"
       y="58.973328"
       id="text23775"
       transform="translate(19.244497)"><tspan
         sodipodi:role="line"
         id="tspan23773"
         style="font-style:normal;font-variant:normal;font-weight:normal;font-stretch:normal;font-size:4.58611px;font-family:sans-serif;-inkscape-font-specification:'sans-serif, Normal';font-variant-ligatures:normal;font-variant-caps:normal;font-variant-numeric:normal;font-variant-east-asian:normal;stroke-width:0.264583;fill:#ffffff;fill-opacity:1"
         x="75.441284"
         y="58.973328">Route 53</tspan></text><path
       style="fill:none;stroke:#000000;stroke-width:0.5;stroke-linecap:butt;stroke-linejoin:miter;stroke-dasharray:none;stroke-opacity:1;marker-end:url(#marker23448)"
       d="M 96.860263,111.14471 V 92.581747 h 38.401527"
       id="path26219"
       sodipodi:nodetypes="ccc"
       transform="translate(19.244497)" /><path
       style="fill:none;stroke:#ffffff;stroke-width:0.5;stroke-linecap:butt;stroke-linejoin:miter;stroke-dasharray:none;stroke-opacity:1;marker-end:url(#marker23448)"
       d="M 96.860263,111.14471 V 92.581747 h 38.401527"
       id="path26225"
       sodipodi:nodetypes="ccc"
       transform="translate(19.244497)" /><path
       style="fill:none;stroke:#ffffff;stroke-width:0.5;stroke-linecap:butt;stroke-linejoin:miter;stroke-dasharray:none;stroke-opacity:1;marker-end:url(#marker23448)"
       d="M 222.28071,111.3844 V 92.82143 h -40.5182"
       id="path26231"
       sodipodi:nodetypes="ccc"
       transform="translate(19.244497)" /></g><metadata
     id="metadata965"><rdf:RDF><cc:Work
         rdf:about=""><cc:license
           rdf:resource="http://creativecommons.org/licenses/by/4.0/" /><dc:title>AWS Multi AZ Web Application</dc:title><dc:creator><cc:Agent><dc:title>Pim Snel</dc:title></cc:Agent></dc:creator><dc:source>https://github.com/mipmip/inkscape-cloud-architect</dc:source><dc:description>AWS Multi AZ Web Application template. Showing Route 53, CloudFront, Auto Scaling Group, RDS, Load Balancer, VPC and S3</dc:description></cc:Work><cc:License
         rdf:about="http://creativecommons.org/licenses/by/4.0/"><cc:permits
           rdf:resource="http://creativecommons.org/ns#Reproduction" /><cc:permits
           rdf:resource="http://creativecommons.org/ns#Distribution" /><cc:requires
           rdf:resource="http://creativecommons.org/ns#Notice" /><cc:requires
           rdf:resource="http://creativecommons.org/ns#Attribution" /><cc:permits
           rdf:resource="http://creativecommons.org/ns#DerivativeWorks" /></cc:License></rdf:RDF></metadata></svg>
