<?xml version="1.0" encoding="UTF-8" standalone="no"?>
<!-- Created with Inkscape (http://www.inkscape.org/) -->

<svg
   width="295.24454mm"
   height="182.67247mm"
   viewBox="0 0 295.24454 182.67247"
   version="1.1"
   id="svg5"
   xml:space="preserve"
   inkscape:version="1.2.1 (9c6d41e410, 2022-07-14)"
   sodipodi:docname="aws-cloud.svg"
   xmlns:inkscape="http://www.inkscape.org/namespaces/inkscape"
   xmlns:sodipodi="http://sodipodi.sourceforge.net/DTD/sodipodi-0.dtd"
   xmlns:xlink="http://www.w3.org/1999/xlink"
   xmlns="http://www.w3.org/2000/svg"
   xmlns:svg="http://www.w3.org/2000/svg"><sodipodi:namedview
     id="namedview7"
     pagecolor="#ffffff"
     bordercolor="#666666"
     borderopacity="1.0"
     inkscape:showpageshadow="2"
     inkscape:pageopacity="0.0"
     inkscape:pagecheckerboard="0"
     inkscape:deskcolor="#d1d1d1"
     inkscape:document-units="mm"
     showgrid="false"
     inkscape:zoom="0.5"
     inkscape:cx="359"
     inkscape:cy="434"
     inkscape:window-width="2560"
     inkscape:window-height="1374"
     inkscape:window-x="0"
     inkscape:window-y="29"
     inkscape:window-maximized="1"
     inkscape:current-layer="layer1" /><defs
     id="defs2"><symbol
       id="symbol3080"><rect
         style="fill:none;stroke:#00a4a6;stroke-width:0.314301;stroke-dasharray:1.25721, 1.25721;stroke-dashoffset:0;stroke-opacity:1"
         id="rect2463"
         width="59.937534"
         height="107.39452"
         x="187.77127"
         y="66.153992" /><text
         xml:space="preserve"
         style="font-size:3.7819px;line-height:1.25;font-family:sans-serif;letter-spacing:0px;stroke-width:0.0945478"
         x="200.3734"
         y="72.967735"
         id="text2795"><tspan
           sodipodi:role="line"
           id="tspan2793"
           style="stroke-width:0.0945478"
           x="200.3734"
           y="72.967735">Availability Zone 1</tspan></text></symbol><linearGradient
       gradientUnits="userSpaceOnUse"
       id="linearGradient5785"><stop
         id="stop5787"
         offset="0"
         style="stop-color:#c0cdf9;stop-opacity:1" /><stop
         id="stop5789"
         offset="1"
         style="stop-color:#07092d;stop-opacity:0.28804347" /></linearGradient><linearGradient
       gradientUnits="userSpaceOnUse"
       y2="60"
       x2="58"
       y1="35"
       x1="33"
       xlink:href="#WhiteTransparent-4"
       id="shinySpecular-4"
       gradientTransform="matrix(1.009184,0,0,1.009184,-0.3890738,-0.3831933)" /><linearGradient
       gradientUnits="userSpaceOnUse"
       id="WhiteTransparent-4"><stop
         id="stop7606-4"
         offset="0"
         style="stop-color:white;stop-opacity:1" /><stop
         id="stop7608-7"
         offset="1"
         style="stop-color:white;stop-opacity:0" /></linearGradient><linearGradient
       gradientUnits="userSpaceOnUse"
       y2="50"
       x2="90"
       y1="20"
       x1="60"
       xlink:href="#WhiteTransparent-4"
       id="IcecapTip-6" /><symbol
       id="res-amazon-vpc-nat-gateway"><title
         id="title804">res-amazon-vpc-nat-gateway</title><g
         id="Icon-Resource/Networking-and-Content-Delivery/Res_Amazon-VPC_NAT-Gateway_48"
         stroke="none"
         stroke-width="1"
         fill="none"
         fill-rule="evenodd"><path
           d="m 13.6255,35.9209 v -2.838 l 1.774,1.419 z m -0.375,-5.7 c -0.301,-0.241 -0.714,-0.288 -1.059,-0.12 -0.345,0.167 -0.566,0.516 -0.566,0.901 v 7 c 0,0.385 0.221,0.734 0.566,0.901 0.139,0.067 0.287,0.099 0.434,0.099 0.223,0 0.444,-0.074 0.625,-0.219 l 4.375,-3.5 c 0.237,-0.19 0.375,-0.477 0.375,-0.781 0,-0.304 -0.138,-0.591 -0.375,-0.781 z m 24.001,-3.384 v -3.922 l 1.961,1.961 z m 4.082,-2.668 -4.375,-4.375 c -0.286,-0.286 -0.714,-0.372 -1.09,-0.217 -0.374,0.155 -0.617,0.52 -0.617,0.924 v 3.375 h -7.626 v -9.5 c 0,-0.553 -0.447,-1 -1,-1 h -7.694 v 2 h 6.694 v 8.5 h -6.875 v 2 h 6.875 v 8.501 h -6.694 v 2 h 7.694 c 0.553,0 1,-0.447 1,-1 v -9.501 h 7.626 v 3.376 c 0,0.404 0.244,0.77 0.617,0.924 0.124,0.052 0.254,0.076 0.383,0.076 0.26,0 0.516,-0.102 0.707,-0.293 l 4.375,-4.376 c 0.391,-0.391 0.391,-1.023 0,-1.414 z m -27.708,2.127 v -2.839 l 1.774,1.419 z m -0.375,-5.701 c -0.301,-0.241 -0.714,-0.287 -1.059,-0.12 -0.345,0.167 -0.566,0.516 -0.566,0.901 v 7.001 c 0,0.385 0.221,0.734 0.566,0.901 0.139,0.067 0.287,0.099 0.434,0.099 0.223,0 0.444,-0.074 0.625,-0.219 l 4.375,-3.501 c 0.237,-0.19 0.375,-0.477 0.375,-0.781 0,-0.304 -0.138,-0.591 -0.375,-0.781 z m 0.375,-4.8 v -2.838 l 1.774,1.419 z m -0.375,-5.7 c -0.301,-0.241 -0.714,-0.288 -1.059,-0.12 -0.345,0.167 -0.566,0.516 -0.566,0.901 v 7 c 0,0.385 0.221,0.734 0.566,0.901 0.139,0.067 0.287,0.099 0.434,0.099 0.223,0 0.444,-0.074 0.625,-0.219 l 4.375,-3.5 c 0.237,-0.19 0.375,-0.477 0.375,-0.781 0,-0.304 -0.138,-0.591 -0.375,-0.781 z m 10.75,33.908 c -11.028,0 -20.001,-8.973 -20.001,-20.002 0,-11.028 8.973,-20.001 20.001,-20.001 11.029,0 20.002,8.973 20.002,20.001 0,11.029 -8.973,20.002 -20.002,20.002 z m 0,-42.003 c -12.132,0 -22.001,9.869 -22.001,22.001 0,12.132 9.869,22.002 22.001,22.002 12.132,0 22.002,-9.87 22.002,-22.002 0,-12.132 -9.87,-22.001 -22.002,-22.001 z"
           id="AWS-Amazon-VPC_NAT-gateway_Resource-Icon_light-bg"
           fill="#8c4fff" /></g></symbol><symbol
       id="res-amazon-ec2-instance"><title
         id="title19986">res-amazon-ec2-instance</title><g
         id="Icon-Resource/Compute/Res_Amazon-EC2_Instance_48"
         stroke="none"
         stroke-width="1"
         fill="none"
         fill-rule="evenodd"><path
           d="M 9,39 H 39 V 9 H 9 Z M 46,13 V 11 H 41 V 8 C 41,7.448 40.552,7 40,7 H 37 V 2 H 35 V 7 H 31 V 2 H 29 V 7 H 25 V 2 H 23 V 7 H 19 V 2 H 17 V 7 H 13 V 2 H 11 V 7 H 8 C 7.447,7 7,7.448 7,8 v 3 H 2 v 2 h 5 v 4 H 2 v 2 h 5 v 4 H 2 v 2 h 5 v 4 H 2 v 2 h 5 v 4 H 2 v 2 h 5 v 3 c 0,0.553 0.447,1 1,1 h 3 v 5 h 2 v -5 h 4 v 5 h 2 v -5 h 4 v 5 h 2 v -5 h 4 v 5 h 2 v -5 h 4 v 5 h 2 v -5 h 3 c 0.552,0 1,-0.447 1,-1 v -3 h 5 v -2 h -5 v -4 h 5 v -2 h -5 v -4 h 5 v -2 h -5 v -4 h 5 v -2 h -5 v -4 z"
           id="Amazon-EC2-Instance_Resource-Icon_light-bg"
           fill="#ed7100" /></g></symbol><symbol
       id="arch-amazon-ec2-auto-scaling"><title
         id="title202">arch-amazon-ec2-auto-scaling</title><g
         id="Icon-Architecture/48/Arch_Amazon-EC2-Auto-Scaling_48"
         stroke="none"
         stroke-width="1"
         fill="none"
         fill-rule="evenodd"><g
           id="g206"
           fill="#ed7100"><rect
             id="rect204"
             x="0"
             y="0"
             width="64"
             height="64" /></g><path
           d="m 54,31.430806 h -7.399671 l 3.30985,-3.310631 -1.421235,-1.421571 -5.736203,5.737556 5.736203,5.737556 1.421235,-1.421571 -3.30985,-3.310631 H 54 Z m -39.910179,-3.310631 3.30985,3.310631 H 10 v 2.010708 h 7.399671 l -3.30985,3.310631 1.421235,1.421571 5.736203,-5.737556 -5.736203,-5.737556 z M 25.856725,39.473639 H 37.918129 V 27.409389 H 25.856725 Z M 39.928363,26.404035 h 2.010234 v 2.010709 h -2.010234 v 2.010708 h 2.010234 v 2.010708 h -2.010234 v 2.010708 h 2.010234 v 2.010708 h -2.010234 v 2.010709 h 2.010234 v 2.010708 h -2.010234 v -0.6947 c 0,0.937995 -0.762884,1.700054 -1.698648,1.700054 h 0.693531 v 2.010708 h -2.010234 v -2.010708 h -2.010234 v 2.010708 H 32.892544 V 41.484347 H 30.88231 v 2.010708 h -2.010234 v -2.010708 h -2.010234 v 2.010708 h -2.010234 v -2.010708 h 0.693531 c -0.935764,0 -1.698648,-0.762059 -1.698648,-1.700054 v 0.6947 h -2.010234 v -2.010708 h 2.010234 v -2.010709 h -2.010234 v -2.010708 h 2.010234 V 32.43616 h -2.010234 v -2.010708 h 2.010234 v -2.010708 h -2.010234 v -2.010709 h 2.010234 v 0.6947 c 0,-0.937995 0.762884,-1.700054 1.698648,-1.700054 h -0.693531 v -2.010708 h 2.010234 v 2.010708 h 2.010234 v -2.010708 h 2.010234 v 2.010708 h 2.010234 v -2.010708 h 2.010234 v 2.010708 h 2.010234 v -2.010708 h 2.010234 v 2.010708 h -0.693531 c 0.935764,0 1.698648,0.762059 1.698648,1.700054 z m -7.035819,23.74747 V 44.500409 H 30.88231 v 5.651096 L 27.281981,46.550326 25.860746,47.971897 31.887427,54 37.914108,47.971897 36.492873,46.550326 Z M 27.204587,17.387015 25.93814,15.824694 31.887427,11 l 5.949287,4.824694 -1.266447,1.562321 -3.677723,-2.982886 v 6.973136 H 30.88231 v -6.973136 z"
           id="Amazon-EC2-Auto-Scaling_Icon_48_Squid"
           fill="#ffffff" /></g></symbol></defs><g
     inkscape:label="Layer 1"
     inkscape:groupmode="layer"
     id="layer1"
     transform="translate(19.244497)"><rect
       style="fill:#475d7a;fill-opacity:1;stroke:none;stroke-width:0.499999;stroke-dasharray:2.00001, 2.00001;stroke-dashoffset:0;stroke-opacity:1"
       id="rect15116"
       width="11"
       height="11"
       x="-2.3885295"
       y="11.755235" /><g
       id="use1424"
       transform="matrix(0.171875,0,0,0.171875,8.899246,43.36657)"
       style="stroke-width:1.53939"><title
         id="title17859">arch-amazon-virtual-private-cloud</title><g
         id="g17867"
         stroke="none"
         stroke-width="1"
         fill="none"
         fill-rule="evenodd"><g
           id="g17863"
           fill="#8c4fff"><rect
             id="rect17861"
             x="0"
             y="0"
             width="64"
             height="64" /></g><path
           d="m 48,33.977287 -3.501,-1.469 v 14.37 c 3.407,-0.731 3.499,-4.697 3.501,-4.883 z m -5.501,12.946 v -14.415 l -3.499,1.469 v 8.027 c 0.008,0.462 0.183,4.335 3.499,4.919 z m 0.613,-16.841 c 0.246,-0.105 0.526,-0.104 0.774,-0.001 l 5.501,2.309 c 0.372,0.156 0.613,0.519 0.613,0.922 v 8.692 c -0.022,2.427 -1.438,7 -6.63,7 -4.977,0 -6.344,-4.572 -6.37,-6.989 v -8.703 c 0,-0.403 0.241,-0.766 0.613,-0.922 z m 8.888,0.71 -8.508,-3.7 -8.492109,3.576 v 10.357 c -8.91e-4,0.065 -0.03689,4.984 2.807109,7.869 1.38,1.4 3.252,2.11 5.563,2.11 8.438,0 8.626,-9.579 8.63,-9.986 z m 2,-0.656 v 10.889 c -0.027,4.148 -2.284,11.979 -10.63,11.979 -2.872,0 -5.225,-0.914 -6.997,-2.716 -3.432,-3.491 -3.377,-9.045 -3.373,-9.28 v -11.004 c 0,-0.402 0.241,-0.766 0.612,-0.922 l 9.499,-4 c 0.252,-0.106 0.536,-0.104 0.786,0.005 l 9.501,4.132 c 0.366,0.159 0.602,0.519 0.602,0.917 z m -35,7.868 h 11 v 2 H 19 c -4.784,0 -8.729,-3.521 -8.98,-8.016 -0.018,-0.175 -0.02,-0.389 -0.02,-0.603 0,-5.299 3.654,-7.347 5.919,-8.107 -0.017,-0.215 -0.028,-0.435 -0.028,-0.652 0,-4.587 2.767,-8.925 6.73,-10.547 4.959,-2.03 10.614,-1.142 14.074,2.206 1.023,0.997 1.909,2.311 2.648,3.921 0.956,-0.784 2.049,-1.202 3.18,-1.202 2.711,0 5.758,2.292 6.377,6.058 2.169,0.282 4.036,1.577 4.996,3.52 l -1.792,0.887 c -0.764,-1.544 -2.298,-2.465 -4.104,-2.465 -0.529,0 -0.967,-0.413 -0.998,-0.941 -0.195,-3.301 -2.727,-5.059 -4.479,-5.059 -0.973,0 -1.941,0.57 -2.726,1.604 -0.222,0.291 -0.582,0.44 -0.945,0.385 -0.362,-0.055 -0.665,-0.302 -0.79,-0.645 -0.735,-2.002 -1.664,-3.559 -2.76,-4.628 -2.896,-2.803 -7.687,-3.524 -11.923,-1.79 -3.604,1.475 -5.488,5.491 -5.488,8.696 0,0.4 0.056,0.877 0.102,1.26 0.06,0.5 -0.263,0.967 -0.753,1.089 -1.957,0.484 -5.24,1.962 -5.24,6.41 0,0.15 -0.002,0.3 0.013,0.451 0.196,3.476 3.263,6.168 6.987,6.168 z"
           id="path17865"
           fill="#ffffff" /></g></g><rect
       style="fill:none;stroke:#000000;stroke-width:0.5;stroke-dasharray:none;stroke-dashoffset:0;stroke-opacity:1"
       id="rect6187"
       width="257.47675"
       height="155.91701"
       x="-2.0752628"
       y="11.799748" /><rect
       style="fill:none;stroke:#00a4a6;stroke-width:0.5;stroke-dasharray:2, 2;stroke-dashoffset:0;stroke-opacity:1"
       id="rect6189"
       width="64.571564"
       height="123.53802"
       x="38.774734"
       y="33.387806" /><g
       id="inkscape-logo"
       transform="matrix(0.02375357,0,0,0.02375357,-1.190832,12.835498)"
       style="stroke-width:10.4709"><path
         d="M 163.15,5.5526469 28.81,143.02265 c -45.39,56.21 30.89,49.67 63.59,65.86 11.73,11.99 -44.96,20.84 -33.23,32.84 11.73,11.99 70.93,23.1 82.68,35.09 11.73,11.99 -24.01,24.71 -12.28,36.7 11.73,11.99 38.86,0.63 43.94,28.31 3.62,19.78 48.89,8.5 71.03,-7.7 11.73,-12 -22.44,-10.87 -10.71,-22.86 29.17,-29.83 56.33,-10.84 66.31,-40.73 4.93,-14.77 -42.94,-22.77 -31.19,-34.76 33.75,-19.71 150.4,-32.54 95.05,-87.89 L 224.75,5.5526469 c -17.03,-16.3499999 -45.45,-16.5299999 -61.6,0 z M 317.46,270.53265 c 0,6.82 50.25,11.29 50.25,-1.61 -7.16,-20.72 -44.31,-19.32 -50.25,1.61 z m -226.36,36.24 c 11.9,10.29 30.28,-2.56 35.79,-16.92 -11.53,-15.32 -54.69,0.55 -35.79,16.92 z m 220.06,-22.23 c -15.34,13.76 1.72,27.72 16.84,18.83 3.37,-3.42 -0.09,-15.41 -16.84,-18.83 z"
         id="path2313"
         inkscape:connector-curvature="0"
         style="fill:#000000;fill-opacity:1;stroke-width:10.4709" /><path
         d="m 131,238.6 c 3.59,2.23 57.89,13.26 71.16,15.46 4.6,0.97 1.34,5.71 -5,8.91 -14.3,3.8 -83.66,-24.37 -66.16,-24.37 z"
         id="path2315"
         style="fill:#ffffff;stroke-width:10.4709"
         inkscape:connector-curvature="0" /><path
         d="m 216.63,37.47 53.15,53.98 c 5.04,5.15 4.97,15.13 2.15,18 L 245.54,88.34 240.35,119.6 218.3,107.96 182.99,130.27 171.3,83.24 152.33,116.06 h -29 c -11.82,0 -13.21,-15 -2.47,-25.74 18.76,-20.25 40.29,-40.89 51.99,-52.85 11.76,-12.02 32.25,-11.68 43.78,0 z"
         id="path2317"
         style="fill:#ffffff;stroke-width:10.4709"
         inkscape:connector-curvature="0" /></g><text
       xml:space="preserve"
       style="font-style:normal;font-variant:normal;font-weight:normal;font-stretch:normal;font-size:4.58611px;line-height:1.25;font-family:sans-serif;-inkscape-font-specification:'sans-serif, Normal';font-variant-ligatures:normal;font-variant-caps:normal;font-variant-numeric:normal;font-variant-east-asian:normal;letter-spacing:0px;stroke-width:0.264583"
       x="12.24759"
       y="19.472813"
       id="text16017"><tspan
         sodipodi:role="line"
         id="tspan16015"
         style="font-style:normal;font-variant:normal;font-weight:normal;font-stretch:normal;font-size:4.58611px;font-family:sans-serif;-inkscape-font-specification:'sans-serif, Normal';font-variant-ligatures:normal;font-variant-caps:normal;font-variant-numeric:normal;font-variant-east-asian:normal;stroke-width:0.264583"
         x="12.24759"
         y="19.472813">Inkscape AWS Template</tspan></text><rect
       style="fill:none;stroke:#00a4a6;stroke-width:0.5;stroke-dasharray:2, 2;stroke-dashoffset:0;stroke-opacity:1"
       id="rect16019"
       width="64.571564"
       height="123.79285"
       x="165.03453"
       y="33.387806" /><rect
       style="fill:none;stroke:#8c4fff;stroke-width:0.500001;stroke-dasharray:none;stroke-dashoffset:0;stroke-opacity:1"
       id="rect16021"
       width="232.63568"
       height="72.921371"
       x="9.3387461"
       y="43.558334" /><text
       xml:space="preserve"
       style="font-style:normal;font-variant:normal;font-weight:normal;font-stretch:normal;font-size:4.58611px;line-height:1.25;font-family:sans-serif;-inkscape-font-specification:'sans-serif, Normal';font-variant-ligatures:normal;font-variant-caps:normal;font-variant-numeric:normal;font-variant-east-asian:normal;letter-spacing:0px;stroke-width:0.264583"
       x="49.529991"
       y="40.11512"
       id="text16991"><tspan
         sodipodi:role="line"
         id="tspan16989"
         style="font-style:normal;font-variant:normal;font-weight:normal;font-stretch:normal;font-size:4.58611px;font-family:sans-serif;-inkscape-font-specification:'sans-serif, Normal';font-variant-ligatures:normal;font-variant-caps:normal;font-variant-numeric:normal;font-variant-east-asian:normal;stroke-width:0.264583"
         x="49.529991"
         y="40.11512">Availability Zone 1</tspan></text><text
       xml:space="preserve"
       style="font-style:normal;font-variant:normal;font-weight:normal;font-stretch:normal;font-size:4.58611px;line-height:1.25;font-family:sans-serif;-inkscape-font-specification:'sans-serif, Normal';font-variant-ligatures:normal;font-variant-caps:normal;font-variant-numeric:normal;font-variant-east-asian:normal;letter-spacing:0px;stroke-width:0.264583"
       x="177.19891"
       y="40.11512"
       id="text17045"><tspan
         sodipodi:role="line"
         id="tspan17043"
         style="font-style:normal;font-variant:normal;font-weight:normal;font-stretch:normal;font-size:4.58611px;font-family:sans-serif;-inkscape-font-specification:'sans-serif, Normal';font-variant-ligatures:normal;font-variant-caps:normal;font-variant-numeric:normal;font-variant-east-asian:normal;stroke-width:0.264583"
         x="177.19891"
         y="40.11512">Availability Zone 2</tspan></text><text
       xml:space="preserve"
       style="font-style:normal;font-variant:normal;font-weight:normal;font-stretch:normal;font-size:4.58611px;line-height:1.25;font-family:sans-serif;-inkscape-font-specification:'sans-serif, Normal';font-variant-ligatures:normal;font-variant-caps:normal;font-variant-numeric:normal;font-variant-east-asian:normal;letter-spacing:0px;stroke-width:0.264583"
       x="23.071634"
       y="51.227631"
       id="text17775"><tspan
         sodipodi:role="line"
         id="tspan17773"
         style="font-style:normal;font-variant:normal;font-weight:normal;font-stretch:normal;font-size:4.58611px;font-family:sans-serif;-inkscape-font-specification:'sans-serif, Normal';font-variant-ligatures:normal;font-variant-caps:normal;font-variant-numeric:normal;font-variant-east-asian:normal;stroke-width:0.264583"
         x="23.071634"
         y="51.227631">VPC</tspan></text><use
       xlink:href="#res-amazon-vpc-nat-gateway"
       id="use27123"
       transform="matrix(0.26458333,0,0,0.26458333,66.333592,49.319091)" /><text
       xml:space="preserve"
       style="font-style:normal;font-variant:normal;font-weight:normal;font-stretch:normal;font-size:4.58611px;line-height:1.25;font-family:sans-serif;-inkscape-font-specification:'sans-serif, Normal';font-variant-ligatures:normal;font-variant-caps:normal;font-variant-numeric:normal;font-variant-east-asian:normal;letter-spacing:0px;stroke-width:0.264583"
       x="57.224037"
       y="66.739998"
       id="text27156"><tspan
         sodipodi:role="line"
         id="tspan27154"
         style="font-style:normal;font-variant:normal;font-weight:normal;font-stretch:normal;font-size:4.58611px;font-family:sans-serif;-inkscape-font-specification:'sans-serif, Normal';font-variant-ligatures:normal;font-variant-caps:normal;font-variant-numeric:normal;font-variant-east-asian:normal;stroke-width:0.264583"
         x="57.224037"
         y="66.739998">NAT gateway</tspan></text><use
       xlink:href="#res-amazon-vpc-nat-gateway"
       id="use27158"
       transform="matrix(0.26458333,0,0,0.26458333,191.64454,49.319091)" /><text
       xml:space="preserve"
       style="font-style:normal;font-variant:normal;font-weight:normal;font-stretch:normal;font-size:4.58611px;line-height:1.25;font-family:sans-serif;-inkscape-font-specification:'sans-serif, Normal';font-variant-ligatures:normal;font-variant-caps:normal;font-variant-numeric:normal;font-variant-east-asian:normal;letter-spacing:0px;stroke-width:0.264583"
       x="182.53452"
       y="66.739998"
       id="text27162"><tspan
         sodipodi:role="line"
         id="tspan27160"
         style="font-style:normal;font-variant:normal;font-weight:normal;font-stretch:normal;font-size:4.58611px;font-family:sans-serif;-inkscape-font-specification:'sans-serif, Normal';font-variant-ligatures:normal;font-variant-caps:normal;font-variant-numeric:normal;font-variant-east-asian:normal;stroke-width:0.264583"
         x="182.53452"
         y="66.739998">NAT gateway</tspan></text><rect
       style="fill:none;stroke:#ed7100;stroke-width:0.499999;stroke-dasharray:1.99999, 1.99999;stroke-dashoffset:0;stroke-opacity:1"
       id="rect27164"
       width="186.0128"
       height="28.865946"
       x="41.315376"
       y="73.915031" /><use
       xlink:href="#res-amazon-ec2-instance"
       id="use27343"
       transform="matrix(0.26458333,0,0,0.26458333,191.87853,78.959603)" /><text
       xml:space="preserve"
       style="font-style:normal;font-variant:normal;font-weight:normal;font-stretch:normal;font-size:4.58611px;line-height:1.25;font-family:sans-serif;-inkscape-font-specification:'sans-serif, Normal';font-variant-ligatures:normal;font-variant-caps:normal;font-variant-numeric:normal;font-variant-east-asian:normal;letter-spacing:0px;stroke-width:0.264583"
       x="187.82611"
       y="97.960869"
       id="text27376"><tspan
         sodipodi:role="line"
         id="tspan27374"
         style="font-style:normal;font-variant:normal;font-weight:normal;font-stretch:normal;font-size:4.58611px;font-family:sans-serif;-inkscape-font-specification:'sans-serif, Normal';font-variant-ligatures:normal;font-variant-caps:normal;font-variant-numeric:normal;font-variant-east-asian:normal;stroke-width:0.264583"
         x="187.82611"
         y="97.960869">Instance</tspan></text><use
       xlink:href="#res-amazon-ec2-instance"
       id="use27378"
       transform="matrix(0.26458333,0,0,0.26458333,66.121922,78.959603)" /><text
       xml:space="preserve"
       style="font-style:normal;font-variant:normal;font-weight:normal;font-stretch:normal;font-size:4.58611px;line-height:1.25;font-family:sans-serif;-inkscape-font-specification:'sans-serif, Normal';font-variant-ligatures:normal;font-variant-caps:normal;font-variant-numeric:normal;font-variant-east-asian:normal;letter-spacing:0px;stroke-width:0.264583"
       x="62.069984"
       y="97.960869"
       id="text27382"><tspan
         sodipodi:role="line"
         id="tspan27380"
         style="font-style:normal;font-variant:normal;font-weight:normal;font-stretch:normal;font-size:4.58611px;font-family:sans-serif;-inkscape-font-specification:'sans-serif, Normal';font-variant-ligatures:normal;font-variant-caps:normal;font-variant-numeric:normal;font-variant-east-asian:normal;stroke-width:0.264583"
         x="62.069984"
         y="97.960869">Instance</tspan></text><use
       xlink:href="#arch-amazon-ec2-auto-scaling"
       id="use27419"
       transform="matrix(0.171875,0,0,0.171875,129.72854,73.771247)"
       style="stroke-width:1.53939" /><text
       xml:space="preserve"
       style="font-style:normal;font-variant:normal;font-weight:normal;font-stretch:normal;font-size:4.58611px;line-height:1.25;font-family:sans-serif;-inkscape-font-specification:'sans-serif, Normal';font-variant-ligatures:normal;font-variant-caps:normal;font-variant-numeric:normal;font-variant-east-asian:normal;letter-spacing:0px;stroke-width:0.264583"
       x="113.26851"
       y="90.280807"
       id="text27460"><tspan
         sodipodi:role="line"
         id="tspan27458"
         style="font-style:normal;font-variant:normal;font-weight:normal;font-stretch:normal;font-size:4.58611px;font-family:sans-serif;-inkscape-font-specification:'sans-serif, Normal';font-variant-ligatures:normal;font-variant-caps:normal;font-variant-numeric:normal;font-variant-east-asian:normal;stroke-width:0.264583"
         x="113.26851"
         y="90.280807">Auto Scaling Group</tspan></text></g></svg>
